#N canvas -9 -9 1920 976 10;
#X msg 28 1005 read -resize bg.wav background;
#X obj 28 1026 soundfiler;
#X msg 31 6 \; pd dsp 1 \;;
#X obj 39 130 bng 15 250 50 0 empty empty empty 17 7 0 10 -262144 -1
-1;
#X obj 39 231 tabplay~ background;
#N canvas 0 50 450 250 (subpatch) 0;
#X array background 1.28655e+007 float 2;
#X coords 0 1 1.28655e+007 -1 200 140 1;
#X restore 24 1257 graph;
#X msg 28 1048 read -resize computer-keyboard.wav com;
#X obj 28 1069 soundfiler;
#N canvas 0 50 450 250 (subpatch) 0;
#X array com 286720 float 2;
#X coords 0 1 286720 -1 200 140 1;
#X restore 244 1257 graph;
#X obj 27 1114 soundfiler;
#N canvas 0 50 450 250 (subpatch) 0;
#X array talk 402002 float 2;
#X coords 0 1 402002 -1 200 140 1 0 0;
#X restore 462 1257 graph;
#X obj 27 1159 soundfiler;
#X msg 27 1136 read -resize footstep.wav walk;
#N canvas 0 50 450 250 (subpatch) 0;
#X array walk 1.27394e+006 float 2;
#X coords 0 1 1.27394e+006 -1 200 140 1;
#X restore 675 1256 graph;
#X msg 109 5 \; pd dsp 0 \;;
#X obj 102 279 bng 15 250 50 0 empty empty empty 17 7 0 10 -262144
-1 -1;
#X obj 101 300 tabplay~ talk;
#X obj 25 1204 soundfiler;
#X msg 25 1181 read -resize bell.wav bell;
#N canvas 0 50 450 250 (subpatch) 0;
#X array bell 137738 float 2;
#X coords 0 1 137738 -1 200 140 1;
#X restore 885 1256 graph;
#X msg 27 1093 read -resize sound_people.wav talk;
#X obj 328 493 tabplay~ bell;
#X obj 327 521 +~;
#X obj 354 547 delwrite~ de 1000;
#X obj 418 474 delread~ de;
#X obj 419 496 *~ 0.3;
#X msg 420 454 150;
#X obj 328 466 t b b;
#X obj 328 438 bng 15 250 50 0 empty empty empty 17 7 0 10 -262144
-1 -1;
#X text 349 437 doorBell;
#X obj 326 630 earplug~ 270 80;
#X text 123 278 people Talking;
#X obj 326 266 tgl 15 0 empty empty empty 17 7 0 10 -262144 -1 -1 0
1;
#X obj 326 313 f;
#X obj 353 314 + 1;
#X obj 326 289 metro 1000;
#X floatatom 380 315 5 0 0 0 - - -;
#X msg 256 135 stop;
#X msg 348 267 0, f 4;
#X text 37 213 cafe music;
#X obj 517 484 tabplay~ walk;
#X obj 516 629 earplug~;
#X obj 569 523 line 0 1;
#X obj 628 546 loadbang;
#X msg 561 573 -35;
#X obj 517 442 bng 15 250 50 0 empty empty empty 17 7 0 10 -262144
-1 -1;
#X obj 256 163 bng 15 250 50 0 empty empty empty 17 7 0 10 -262144
-1 -1;
#X text 596 585 init azimuth;
#X obj 331 1013 soundfiler;
#N canvas 0 50 450 250 (subpatch) 0;
#X array phoneVib 379904 float 2;
#X coords 0 1 379904 -1 200 140 1;
#X restore 1094 1256 graph;
#X msg 331 991 read -resize phoneVib.wav phoneVib;
#X obj 329 1066 soundfiler;
#X msg 329 1044 read -resize bills.wav bills;
#X obj 329 1118 soundfiler;
#X msg 329 1096 read -resize cupTabel.wav cupTabel;
#N canvas 0 50 450 250 (subpatch) 0;
#X array bills 107087 float 2;
#X coords 0 1 107087 -1 200 140 1;
#X restore 1513 1256 graph;
#N canvas 0 50 450 250 (subpatch) 0;
#X array cupTabel 23552 float 2;
#X coords 0 1 23552 -1 200 140 1;
#X restore 1305 1256 graph;
#X obj 1374 467 tabplay~ phoneVib;
#X obj 995 474 tabplay~ cupTabel;
#N canvas 0 50 450 250 (subpatch) 0;
#X array chair 2.35602e+006 float 2;
#X coords 0 1 2.35602e+006 -1 200 140 1;
#X restore 25 1423 graph;
#X obj 333 1193 soundfiler;
#X msg 333 1171 read -resize chair.wav chair;
#X text 27 952 load sound files;
#X text 539 440 new customer walk;
#X obj 714 482 tabplay~ chair;
#X obj 714 629 earplug~;
#X obj 796 552 loadbang;
#X obj 714 436 bng 15 250 50 0 empty empty empty 17 7 0 10 -262144
-1 -1;
#X obj 815 507 line 0 1;
#X obj 517 505 *~ 0.95;
#X msg 796 577 82;
#X msg 714 459 1.764e+006 185000;
#X text 742 436 chair;
#X msg 642 985 read -resize sip.wav sip;
#X obj 642 1006 soundfiler;
#N canvas 0 50 450 250 (subpatch) 0;
#X array sip 221309 float 2;
#X coords 0 1 221309 -1 200 140 1;
#X restore 242 1421 graph;
#X obj 911 435 bng 15 250 50 0 empty empty empty 17 7 0 10 -262144
-1 -1;
#X obj 911 455 tabplay~ sip;
#X obj 1005 578 line 0 1;
#X obj 1021 603 loadbang;
#X msg 1021 624 -10;
#X obj 994 500 +~;
#X obj 995 452 t b b;
#X msg 1110 459 150;
#X obj 1110 480 delread~ del2;
#X obj 1041 526 delwrite~ del2 1000;
#X obj 995 432 bng 15 250 50 0 empty empty empty 17 7 0 10 -262144
-1 -1;
#X text 1035 432 drink coffee & put it down;
#X msg 759 577 -35;
#X text 38 98 start botton!;
#X obj 42 807 output~;
#X obj 327 574 *~ 0.95;
#X obj 225 948 loadbang;
#X text 40 81 before start volume up plz;
#X obj 101 396 earplug~ 180 10;
#X obj 1251 440 bng 15 250 50 0 empty empty empty 17 7 0 10 -262144
-1 -1;
#X obj 1251 462 tabplay~ com;
#X msg 39 188 450000;
#X msg 628 571 90;
#X obj 1111 500 *~ 0.3;
#X msg 517 463 44100 221000;
#X msg 567 503 90 \, 270 10000;
#X msg 815 486 270 \, 260 1000;
#X obj 910 625 earplug~ 90 5;
#X msg 1005 557 5 \, 0 2000;
#X obj 1374 440 bng 15 250 50 0 empty empty empty 17 7 0 10 -262144
-1 -1;
#X obj 1251 483 *~ 3;
#X obj 642 1064 soundfiler;
#N canvas 0 50 450 250 (subpatch) 0;
#X array t1 21888 float 2;
#X coords 0 1 21888 -1 200 140 1;
#X restore 461 1422 graph;
#N canvas 0 50 450 250 (subpatch) 0;
#X array t2 121716 float 2;
#X coords 0 1 121716 -1 200 140 1;
#X restore 674 1423 graph;
#X obj 644 1112 soundfiler;
#X obj 1473 514 tabplay~ t1;
#X obj 1536 561 tabplay~ t2;
#X obj 1375 628 earplug~ 85 2;
#X msg 644 1091 read -resize sure.wav t2;
#X msg 642 1043 read -resize yes.wav t1;
#X obj 1536 536 bng 15 250 50 0 empty empty empty 17 7 0 10 -262144
-1 -1;
#X text 1393 439 right phone vibs;
#X msg 1649 667 stop;
#X text 1625 616 earphone on;
#X obj 39 252 *~ 0.05;
#X obj 1250 627 earplug~ 0 5;
#X text 1278 438 me typing;
#X obj 326 342 sel 10 14 15 18 22 30 3 40;
#X obj 1473 490 delay 2000;
#N canvas 0 50 450 250 (subpatch) 0;
#X array new 1.28183e+007 float 2;
#X coords 0 1 1.28183e+007 -1 200 140 1;
#X restore 886 1425 graph;
#X obj 646 1160 soundfiler;
#X msg 646 1139 read -resize FlowerDance.wav new;
#X obj 1599 690 tabplay~ new;
#X obj 1598 820 bp~ 100, f 16;
#X obj 1628 727 tgl 15 0 empty empty empty 17 7 0 10 -262144 -1 -1
0 1;
#X obj 1628 785 f;
#X floatatom 1691 786 5 0 0 0 - - -;
#X obj 1648 646 delay 29000;
#X msg 1713 746 30;
#X obj 1628 751 metro 1000;
#X obj 1660 786 - 1;
#X connect 0 0 1 0;
#X connect 3 0 32 0;
#X connect 3 0 38 0;
#X connect 3 0 15 0;
#X connect 3 0 97 0;
#X connect 4 0 120 0;
#X connect 6 0 7 0;
#X connect 12 0 11 0;
#X connect 15 0 16 0;
#X connect 16 0 94 0;
#X connect 16 1 15 0;
#X connect 18 0 17 0;
#X connect 20 0 9 0;
#X connect 21 0 22 0;
#X connect 22 0 23 0;
#X connect 22 0 91 0;
#X connect 24 0 25 0;
#X connect 25 0 22 1;
#X connect 26 0 24 0;
#X connect 27 0 21 0;
#X connect 27 1 26 0;
#X connect 28 0 27 0;
#X connect 30 0 90 0;
#X connect 30 1 90 1;
#X connect 32 0 35 0;
#X connect 33 0 34 0;
#X connect 33 0 36 0;
#X connect 33 0 123 0;
#X connect 34 0 33 1;
#X connect 35 0 33 0;
#X connect 37 0 4 0;
#X connect 37 0 46 0;
#X connect 37 0 16 0;
#X connect 38 0 33 0;
#X connect 40 0 69 0;
#X connect 41 0 90 0;
#X connect 41 1 90 1;
#X connect 42 0 41 1;
#X connect 43 0 44 0;
#X connect 43 0 98 0;
#X connect 44 0 41 2;
#X connect 45 0 100 0;
#X connect 45 0 101 0;
#X connect 46 0 32 0;
#X connect 50 0 48 0;
#X connect 52 0 51 0;
#X connect 54 0 53 0;
#X connect 57 0 113 0;
#X connect 57 1 124 0;
#X connect 58 0 81 0;
#X connect 61 0 60 0;
#X connect 64 0 65 0;
#X connect 65 0 90 0;
#X connect 65 1 90 1;
#X connect 66 0 88 0;
#X connect 66 0 70 0;
#X connect 67 0 102 0;
#X connect 67 0 71 0;
#X connect 68 0 65 1;
#X connect 69 0 41 0;
#X connect 70 0 65 1;
#X connect 71 0 64 0;
#X connect 73 0 74 0;
#X connect 76 0 77 0;
#X connect 76 0 104 0;
#X connect 77 0 103 0;
#X connect 77 1 86 0;
#X connect 78 0 103 2;
#X connect 79 0 80 0;
#X connect 80 0 103 2;
#X connect 81 0 85 0;
#X connect 81 0 103 0;
#X connect 82 0 58 0;
#X connect 82 1 83 0;
#X connect 82 1 104 0;
#X connect 83 0 84 0;
#X connect 84 0 99 0;
#X connect 86 0 82 0;
#X connect 88 0 65 2;
#X connect 91 0 30 0;
#X connect 92 0 50 0;
#X connect 92 0 73 0;
#X connect 92 0 61 0;
#X connect 92 0 54 0;
#X connect 92 0 52 0;
#X connect 92 0 18 0;
#X connect 92 0 12 0;
#X connect 92 0 20 0;
#X connect 92 0 6 0;
#X connect 92 0 0 0;
#X connect 92 0 115 0;
#X connect 92 0 114 0;
#X connect 92 0 127 0;
#X connect 94 0 90 0;
#X connect 94 1 90 1;
#X connect 95 0 96 0;
#X connect 96 0 106 0;
#X connect 97 0 4 0;
#X connect 98 0 41 1;
#X connect 99 0 81 1;
#X connect 100 0 40 0;
#X connect 101 0 42 0;
#X connect 102 0 68 0;
#X connect 103 0 90 0;
#X connect 103 1 90 1;
#X connect 104 0 78 0;
#X connect 105 0 57 0;
#X connect 106 0 121 0;
#X connect 111 0 113 0;
#X connect 111 1 116 0;
#X connect 112 0 113 0;
#X connect 112 1 128 0;
#X connect 112 1 133 0;
#X connect 112 1 130 0;
#X connect 112 1 134 0;
#X connect 113 0 90 0;
#X connect 113 1 90 1;
#X connect 114 0 110 0;
#X connect 115 0 107 0;
#X connect 116 0 112 0;
#X connect 118 0 128 0;
#X connect 120 0 90 0;
#X connect 120 0 90 1;
#X connect 121 0 90 0;
#X connect 121 1 90 1;
#X connect 123 0 28 0;
#X connect 123 2 45 0;
#X connect 123 3 67 0;
#X connect 123 4 76 0;
#X connect 123 5 95 0;
#X connect 123 7 105 0;
#X connect 124 0 111 0;
#X connect 127 0 126 0;
#X connect 128 0 129 0;
#X connect 129 0 90 0;
#X connect 129 0 90 1;
#X connect 130 0 135 0;
#X connect 131 0 136 0;
#X connect 132 0 129 2;
#X connect 133 0 118 0;
#X connect 134 0 131 0;
#X connect 135 0 131 0;
#X connect 136 0 131 1;
#X connect 136 0 132 0;
