#N canvas -9 -9 1920 976 10;
#X msg 13 8 \; pd dsp 1 \;;
#X msg 634 152 \; pd dsp 0 \;;
#X obj 275 288 *~;
#X obj 275 333 *~;
#X obj 333 232 *~ 0.5;
#X obj 333 254 +~ 0.5;
#X obj 333 211 osc~;
#X obj 319 309 vline~;
#X obj 275 211 mtof;
#X floatatom 275 231 5 0 0 0 - - -;
#X msg 275 190 57;
#X msg 333 190 20;
#X obj 61 102 f;
#X obj 90 101 + 1;
#X obj 60 318 *~;
#X obj 99 292 vline~;
#X obj 267 397 dac~;
#X obj 12 44 tgl 15 0 empty empty empty 17 7 0 10 -262144 -1 -1 0 1
;
#X obj 61 80 metro 600;
#X msg 99 272 0.4 10 \, 0 10 100;
#X obj 60 266 mtof;
#X obj 60 241 tabread phoneNum;
#N canvas 0 50 450 250 (subpatch) 0;
#X array phoneNum 11 float 3;
#A 0 65 60 65 60 62 60 62 62 65 64 64;
#X coords 0 60 12 68 200 140 1 0 0;
#X restore 350 6 graph;
#X msg 556 7 \; phoneNum resize 11 \;;
#X obj 60 204 spigot;
#X obj 101 185 tgl 15 0 empty empty empty 17 7 0 10 -262144 -1 -1 1
1;
#X msg 319 287 0.5 20 \, 0 900 1300;
#X obj 101 165 expr $f1 < 11;
#X msg 556 43 \; phoneNum bounds 0 60 12 68 \; phoneNum 0 65 60 65
60 62 60 62 62 65 64 64 \;;
#X obj 319 165 bng 15 250 50 0 empty empty empty 17 7 0 10 -262144
-1 -1;
#X floatatom 11 118 5 0 0 0 - - -;
#X obj 474 220 osc~ 440;
#X obj 60 293 osc~;
#X obj 540 221 osc~ 636;
#X obj 474 258 +~;
#X text 36 424 전화번호 입력 중..., f 16;
#X obj 275 253 phasor~;
#X obj 474 290 *~;
#X obj 514 263 phasor~ 1;
#X obj 475 329 *~;
#X msg 540 190 0.3;
#X obj 572 168 bng 15 250 50 0 empty empty empty 17 7 0 10 -262144
-1 -1;
#X obj 539 168 bng 15 250 50 0 empty empty empty 17 7 0 10 -262144
-1 -1;
#X obj 203 164 sel 13 19 25 31 37;
#X text 263 425 전화 거는 중..., f 13;
#X text 502 424 전화 끝남, f 8;
#X msg 572 191 0;
#X text 14 457 11개만 phoneNum Array에서 값을 받는다 11을
넘으면 값을 받지 않는다, f 25;
#X msg 12 80 0, f 4;
#X text 87 12 first click;
#X text 34 43 second click;
#X obj 456 188 sel 45 60 62;
#X obj 514 289 expr~ $v1 > 0.2;
#X connect 2 0 3 0;
#X connect 3 0 16 0;
#X connect 3 0 16 1;
#X connect 4 0 5 0;
#X connect 5 0 2 1;
#X connect 6 0 4 0;
#X connect 7 0 3 1;
#X connect 8 0 9 0;
#X connect 9 0 36 0;
#X connect 10 0 8 0;
#X connect 11 0 6 0;
#X connect 12 0 13 0;
#X connect 12 0 24 0;
#X connect 12 0 27 0;
#X connect 12 0 30 0;
#X connect 12 0 43 0;
#X connect 12 0 51 0;
#X connect 13 0 12 1;
#X connect 14 0 16 0;
#X connect 14 0 16 1;
#X connect 15 0 14 1;
#X connect 17 0 48 0;
#X connect 17 0 18 0;
#X connect 18 0 12 0;
#X connect 19 0 15 0;
#X connect 20 0 32 0;
#X connect 21 0 20 0;
#X connect 24 0 21 0;
#X connect 24 0 19 0;
#X connect 25 0 24 1;
#X connect 26 0 7 0;
#X connect 27 0 25 0;
#X connect 29 0 26 0;
#X connect 29 0 10 0;
#X connect 29 0 11 0;
#X connect 31 0 34 0;
#X connect 32 0 14 0;
#X connect 33 0 34 1;
#X connect 34 0 37 0;
#X connect 36 0 2 0;
#X connect 37 0 39 0;
#X connect 38 0 52 0;
#X connect 39 0 16 0;
#X connect 39 0 16 1;
#X connect 40 0 39 1;
#X connect 41 0 46 0;
#X connect 42 0 40 0;
#X connect 43 0 29 0;
#X connect 43 1 29 0;
#X connect 43 2 29 0;
#X connect 43 3 29 0;
#X connect 43 4 29 0;
#X connect 46 0 39 1;
#X connect 48 0 12 0;
#X connect 51 0 42 0;
#X connect 51 1 41 0;
#X connect 51 2 17 0;
#X connect 52 0 37 1;
