#N canvas -9 -9 1920 976 10;
#X obj 16 425 tabread melody;
#X floatatom 16 456 5 0 0 0 - - -;
#X obj 16 485 mtof;
#X floatatom 16 516 5 0 0 0 - - -;
#X obj 49 271 + 1;
#X obj 15 609 dac~;
#X obj 16 539 osc~;
#X floatatom 16 338 5 0 10 0 - - -;
#N canvas 0 50 450 250 (subpatch) 0;
#X array tempo 95 float 3;
#A 0 2 0.5 0.5 0.5 0.5 1.5 0.5 1.5 0.5 1 1 0.5 0.5 0.5 0.5 0.5 1.5
2 2 0.5 0.5 0.5 0.5 0.5 1 1 0.5 0.5 0.5 1 1 0.5 1 0.5 0.5 1 1 1 0.5
2 0.5 0.5 0.5 0.5 0.5 0.5 1 0.5 0.5 1 0.5 0.5 1 0.5 0.5 0.5 0.5 0.5
0.5 1 1 0.5 0.5 0.5 0.5 0.5 0.5 0.5 0.5 0.5 0.5 0.5 0.5 0.5 0.5 0.5
1 0.5 0.5 1 1 0.5 0.5 0.5 0.5 1 1 0.5 0.5 3.5 5 0 0 0 0;
#X coords 0 0 95 5 200 140 1 0 0;
#X restore 577 234 graph;
#N canvas 0 50 450 250 (subpatch) 0;
#X array melody 95 float 3;
#A 0 0 69 71 72 71 71 68 68 68 69 0 60 62 60 62 62 64 0 0 69 71 72
71 71 68 68 64 68 68 69 0 69 71 72 72 71 69 69 76 76 0 67 67 76 76
74 74 67 67 74 74 72 72 67 67 76 76 76 74 74 74 74 74 74 76 0 67 67
74 76 76 74 74 74 67 67 74 74 72 72 69 76 76 77 76 74 74 74 74 72 0
0 0 0 0;
#X coords 0 0 95 80 200 140 1 0 0;
#X restore 574 23 graph;
#X obj 127 163 tabread tempo;
#X obj 15 98 tgl 15 0 empty empty empty 17 7 0 10 -262144 -1 -1 1 1
;
#X msg 17 17 \; pd dsp 1 \;;
#X msg 17 54 \; pd dsp 0 \;;
#X obj 127 184 * 476;
#X obj 15 272 f;
#X floatatom 127 204 5 0 0 0 - - -;
#X obj 76 228 metro 476;
#X text 46 97 on / off;
#X text 49 133 when trigger is pressed index initalize to 0;
#X text 585 175 melody는 음을 MIDI로 표현했다, f 28;
#X text 573 414 tempo는 박자를 저장한 array이다 1/4 박자를
1로 표현하여 나머지 박자를 그 기준에 맞추어 변환하여
표현했다 옆에서 476을 곱하여 126 BPM을 구현하였다
, f 124;
#X obj 92 787 osc~;
#X obj 92 761 mtof;
#X obj 151 786 osc~;
#X obj 151 760 mtof;
#X obj 206 787 osc~;
#X obj 206 761 mtof;
#X obj 135 859 +~;
#X obj 192 889 +~;
#X obj 92 824 *~ 0.1;
#X obj 151 823 *~ 0.1;
#X obj 206 824 *~ 0.1;
#X msg 92 728 57;
#X msg 150 727 60;
#X msg 205 727 64;
#X obj 189 958 dac~;
#X obj 225 888 line~;
#X obj 192 920 *~;
#X text 43 730 Am;
#X obj 59 384 send node;
#X obj 249 532 receive node;
#X floatatom 249 558 5 0 0 0 - - -;
#X obj 17 730 bng 15 250 50 0 empty empty empty 17 7 0 10 -262144 -1
-1;
#X msg 786 20 \; melody resize 95 \;;
#X msg 807 234 \; tempo resize 95 \;;
#X msg 803 274 \; tempo bounds 0 0 95 5 \;;
#X obj 15 304 mod 95;
#X obj 396 787 osc~;
#X obj 396 761 mtof;
#X obj 455 786 osc~;
#X obj 455 760 mtof;
#X obj 510 787 osc~;
#X obj 510 761 mtof;
#X obj 433 851 +~;
#X obj 477 884 +~;
#X obj 395 822 *~ 0.1;
#X obj 454 822 *~ 0.1;
#X obj 509 824 *~ 0.1;
#X obj 474 953 dac~;
#X obj 540 883 line~;
#X obj 477 915 *~;
#X obj 348 731 bng 15 250 50 0 empty empty empty 17 7 0 10 -262144
-1 -1;
#X text 370 728 E;
#X obj 753 785 osc~;
#X obj 753 759 mtof;
#X obj 812 784 osc~;
#X obj 812 758 mtof;
#X obj 867 785 osc~;
#X obj 867 759 mtof;
#X obj 788 851 +~;
#X obj 832 884 +~;
#X obj 755 822 *~ 0.1;
#X obj 814 821 *~ 0.1;
#X obj 869 822 *~ 0.1;
#X obj 831 953 dac~;
#X obj 912 889 line~;
#X obj 832 915 *~;
#X obj 700 726 bng 15 250 50 0 empty empty empty 17 7 0 10 -262144
-1 -1;
#X text 727 725 F;
#X obj 1048 777 osc~;
#X obj 1048 751 mtof;
#X obj 1107 776 osc~;
#X obj 1107 750 mtof;
#X obj 1162 777 osc~;
#X obj 1162 751 mtof;
#X obj 1083 842 +~;
#X obj 1127 875 +~;
#X obj 1050 814 *~ 0.1;
#X obj 1109 813 *~ 0.1;
#X obj 1164 814 *~ 0.1;
#X obj 1127 944 dac~;
#X obj 1207 880 line~;
#X obj 1127 906 *~;
#X obj 998 716 bng 15 250 50 0 empty empty empty 17 7 0 10 -262144
-1 -1;
#X text 1020 714 C;
#X obj 86 1105 osc~;
#X obj 86 1079 mtof;
#X obj 145 1104 osc~;
#X obj 145 1078 mtof;
#X obj 200 1105 osc~;
#X obj 200 1079 mtof;
#X obj 121 1175 +~;
#X obj 165 1208 +~;
#X obj 87 1142 *~ 0.1;
#X obj 146 1141 *~ 0.1;
#X obj 201 1142 *~ 0.1;
#X msg 86 1046 57;
#X msg 144 1045 60;
#X msg 199 1045 64;
#X obj 165 1277 dac~;
#X obj 245 1213 line~;
#X obj 165 1239 *~;
#X obj 27 1045 bng 15 250 50 0 empty empty empty 17 7 0 10 -262144
-1 -1;
#X text 51 1043 Am7;
#X obj 256 1102 osc~;
#X obj 256 1076 mtof;
#X obj 257 1139 *~ 0.1;
#X msg 255 1041 67;
#X obj 200 1174 +~;
#X msg 396 728 52;
#X msg 455 727 56;
#X msg 510 727 59;
#X msg 753 726 53;
#X msg 811 725 57;
#X msg 866 725 60;
#X msg 1048 718 48;
#X msg 1106 717 52;
#X msg 1161 717 55;
#X obj 404 1097 osc~;
#X obj 404 1071 mtof;
#X obj 463 1096 osc~;
#X obj 463 1070 mtof;
#X obj 518 1097 osc~;
#X obj 518 1071 mtof;
#X obj 449 1171 +~;
#X obj 488 1191 +~;
#X obj 406 1134 *~ 0.1;
#X obj 465 1133 *~ 0.1;
#X obj 520 1134 *~ 0.1;
#X obj 488 1260 dac~;
#X obj 568 1196 line~;
#X obj 488 1222 *~;
#X obj 353 1040 bng 15 250 50 0 empty empty empty 17 7 0 10 -262144
-1 -1;
#X text 376 1040 G;
#X msg 404 1038 55;
#X msg 462 1037 59;
#X msg 517 1037 62;
#X obj 761 1089 osc~;
#X obj 761 1063 mtof;
#X obj 820 1088 osc~;
#X obj 820 1062 mtof;
#X obj 875 1089 osc~;
#X obj 875 1063 mtof;
#X obj 799 1179 +~;
#X obj 843 1212 +~;
#X obj 763 1126 *~ 0.1;
#X obj 822 1125 *~ 0.1;
#X obj 877 1126 *~ 0.1;
#X obj 843 1281 dac~;
#X obj 923 1217 line~;
#X obj 843 1243 *~;
#X obj 675 1036 bng 15 250 50 0 empty empty empty 17 7 0 10 -262144
-1 -1;
#X obj 931 1086 osc~;
#X obj 931 1060 mtof;
#X obj 933 1123 *~ 0.1;
#X obj 878 1178 +~;
#X text 701 1033 F add 9;
#X msg 874 1029 60;
#X msg 930 1025 67;
#X msg 819 1029 57;
#X msg 761 1030 53;
#X msg 787 56 \; melody bounds 0 0 95 80 \;;
#X msg 791 96 \; melody 0 0 69 71 72 71 71 68 68 68 69 0 60 62 60 62
62 64 0 0 69 71 72 71 71 68 68 64 68 68 69 0 69 71 72 72 71 69 69 76
76 0 67 67 76 76 74 74 67 67 74 74 72 72 67 67 76 76 76 74 74 74 74
74 74 76 0 67 67 74 76 76 74 74 74 67 67 74 74 72 72 69 76 76 77 76
74 74 74 74 72 0 \;;
#X msg 803 311 \; tempo 0 2 0.5 0.5 0.5 0.5 1.5 0.5 1.5 0.5 1 1 0.5
0.5 0.5 0.5 0.5 1.5 2 2 0.5 0.5 0.5 0.5 0.5 1 1 0.5 0.5 0.5 1 1 0.5
1 0.5 0.5 1 1 1 0.5 2 0.5 0.5 0.5 0.5 0.5 0.5 1 0.5 0.5 1 0.5 0.5 1
0.5 0.5 0.5 0.5 0.5 0.5 1 1 0.5 0.5 0.5 0.5 0.5 0.5 0.5 0.5 0.5 0.5
0.5 0.5 0.5 0.5 0.5 1 0.5 0.5 1 1 0.5 0.5 0.5 0.5 1 1 0.5 0.5 3.5 5
\;;
#X msg 15 132 -1;
#X obj 439 524 bng 15 250 50 0 empty empty empty 17 7 0 10 -262144
-1 -1;
#X obj 462 523 bng 15 250 50 0 empty empty empty 17 7 0 10 -262144
-1 -1;
#X obj 483 522 bng 15 250 50 0 empty empty empty 17 7 0 10 -262144
-1 -1;
#X obj 503 522 bng 15 250 50 0 empty empty empty 17 7 0 10 -262144
-1 -1;
#X obj 523 521 bng 15 250 50 0 empty empty empty 17 7 0 10 -262144
-1 -1;
#X obj 542 523 bng 15 250 50 0 empty empty empty 17 7 0 10 -262144
-1 -1;
#X obj 563 522 bng 15 250 50 0 empty empty empty 17 7 0 10 -262144
-1 -1;
#X obj 487 457 bng 15 250 50 0 empty empty empty 17 7 0 10 -262144
-1 -1;
#X text 590 519 initalize mtof;
#X text 133 383 화음을 재생할 노드 번호 얻기 위해 send
, f 35;
#X text 204 512 지금 재생하는 번호를 receive로 얻는다
, f 28;
#X text 752 575 화음이 재생되어야하는 번호를 받아서
각 번호에 맞는 화음을 trigger(bang) 할 수 있게 한다
, f 34;
#X obj 310 591 select 0 5 9 11 15 18 23 29 31 34 39 46 52 59 62 69
73 79 82 85 88, f 67;
#X msg 229 862 0.3 \, 0 1428;
#X msg 545 857 0.3 \, 0 1428;
#X msg 915 863 0.3 \, 0 1428;
#X msg 1211 852 0.3 \, 0 1428;
#X msg 249 1187 0.3 \, 0 1428;
#X msg 572 1170 0.3 \, 0 1428;
#X msg 927 1191 0.3 \, 0 1428;
#X text 1061 1068 각각은 화음이다 line~ 기능을 이용하여
*~값이 0.3에서 0으로 1428ms동안 줄어들게 하였다, f
34;
#X text 224 40 공항 가는 길 마이 앤트 메리 0:50 ~ 1:20,
f 41;
#X text 175 186 박자를 tempo tabel에서 읽어온다 가져온
숫자에 476을 곱하여 템포를 맞춘다 그 후 metro에 넣어
다음 음이 나올 때까지 기다려준다., f 56;
#X text 65 330 trigger되면 숫자가 1씩 증가한다 85보다 커지게
되면 처음부터 다시 시작된다, f 45;
#X text 120 424 멜로디음을 melody tabel에서 가져온다 melody
tabel은 MIDI로 표현했기 때문에 주파수로 바꾸어 준다
, f 46;
#X text 1097 637 화음 이름 옆에 있는 bang을 누르면 화음이
재생된다, f 47;
#X obj 16 565 *~ 0.2;
#X connect 0 0 1 0;
#X connect 1 0 2 0;
#X connect 2 0 3 0;
#X connect 3 0 6 0;
#X connect 4 0 15 1;
#X connect 6 0 202 0;
#X connect 7 0 10 0;
#X connect 7 0 0 0;
#X connect 7 0 40 0;
#X connect 10 0 14 0;
#X connect 11 0 175 0;
#X connect 11 0 17 0;
#X connect 11 0 183 0;
#X connect 14 0 16 0;
#X connect 15 0 4 0;
#X connect 15 0 47 0;
#X connect 16 0 17 1;
#X connect 17 0 15 0;
#X connect 22 0 30 0;
#X connect 23 0 22 0;
#X connect 24 0 31 0;
#X connect 25 0 24 0;
#X connect 26 0 32 0;
#X connect 27 0 26 0;
#X connect 28 0 29 0;
#X connect 29 0 38 0;
#X connect 30 0 28 0;
#X connect 31 0 28 1;
#X connect 32 0 29 1;
#X connect 33 0 23 0;
#X connect 34 0 25 0;
#X connect 35 0 27 0;
#X connect 37 0 38 1;
#X connect 38 0 36 0;
#X connect 38 0 36 1;
#X connect 41 0 42 0;
#X connect 42 0 188 0;
#X connect 43 0 189 0;
#X connect 47 0 7 0;
#X connect 48 0 56 0;
#X connect 49 0 48 0;
#X connect 50 0 57 0;
#X connect 51 0 50 0;
#X connect 52 0 58 0;
#X connect 53 0 52 0;
#X connect 54 0 55 0;
#X connect 55 0 61 0;
#X connect 56 0 54 0;
#X connect 57 0 54 1;
#X connect 58 0 55 1;
#X connect 60 0 61 1;
#X connect 61 0 59 0;
#X connect 61 0 59 1;
#X connect 62 0 190 0;
#X connect 64 0 72 0;
#X connect 65 0 64 0;
#X connect 66 0 73 0;
#X connect 67 0 66 0;
#X connect 68 0 74 0;
#X connect 69 0 68 0;
#X connect 70 0 71 0;
#X connect 71 0 77 0;
#X connect 72 0 70 0;
#X connect 73 0 70 1;
#X connect 74 0 71 1;
#X connect 76 0 77 1;
#X connect 77 0 75 0;
#X connect 77 0 75 1;
#X connect 78 0 191 0;
#X connect 80 0 88 0;
#X connect 81 0 80 0;
#X connect 82 0 89 0;
#X connect 83 0 82 0;
#X connect 84 0 90 0;
#X connect 85 0 84 0;
#X connect 86 0 87 0;
#X connect 87 0 93 0;
#X connect 88 0 86 0;
#X connect 89 0 86 1;
#X connect 90 0 87 1;
#X connect 92 0 93 1;
#X connect 93 0 91 0;
#X connect 93 0 91 1;
#X connect 94 0 192 0;
#X connect 96 0 104 0;
#X connect 97 0 96 0;
#X connect 98 0 105 0;
#X connect 99 0 98 0;
#X connect 100 0 106 0;
#X connect 101 0 100 0;
#X connect 102 0 103 0;
#X connect 103 0 112 0;
#X connect 104 0 102 0;
#X connect 105 0 102 1;
#X connect 106 0 119 0;
#X connect 107 0 97 0;
#X connect 108 0 99 0;
#X connect 109 0 101 0;
#X connect 111 0 112 1;
#X connect 112 0 110 0;
#X connect 112 0 110 1;
#X connect 113 0 193 0;
#X connect 115 0 117 0;
#X connect 116 0 115 0;
#X connect 117 0 119 1;
#X connect 118 0 116 0;
#X connect 119 0 103 1;
#X connect 120 0 49 0;
#X connect 121 0 51 0;
#X connect 122 0 53 0;
#X connect 123 0 65 0;
#X connect 124 0 67 0;
#X connect 125 0 69 0;
#X connect 126 0 81 0;
#X connect 127 0 83 0;
#X connect 128 0 85 0;
#X connect 129 0 137 0;
#X connect 130 0 129 0;
#X connect 131 0 138 0;
#X connect 132 0 131 0;
#X connect 133 0 139 0;
#X connect 134 0 133 0;
#X connect 135 0 136 0;
#X connect 136 0 142 0;
#X connect 137 0 135 0;
#X connect 138 0 135 1;
#X connect 139 0 136 1;
#X connect 141 0 142 1;
#X connect 142 0 140 0;
#X connect 142 0 140 1;
#X connect 143 0 194 0;
#X connect 145 0 130 0;
#X connect 146 0 132 0;
#X connect 147 0 134 0;
#X connect 148 0 156 0;
#X connect 149 0 148 0;
#X connect 150 0 157 0;
#X connect 151 0 150 0;
#X connect 152 0 158 0;
#X connect 153 0 152 0;
#X connect 154 0 155 0;
#X connect 155 0 161 0;
#X connect 156 0 154 0;
#X connect 157 0 154 1;
#X connect 158 0 166 0;
#X connect 160 0 161 1;
#X connect 161 0 159 0;
#X connect 161 0 159 1;
#X connect 162 0 195 0;
#X connect 163 0 165 0;
#X connect 164 0 163 0;
#X connect 165 0 166 1;
#X connect 166 0 155 1;
#X connect 168 0 153 0;
#X connect 169 0 164 0;
#X connect 170 0 151 0;
#X connect 171 0 149 0;
#X connect 175 0 15 0;
#X connect 176 0 34 0;
#X connect 176 0 33 0;
#X connect 176 0 35 0;
#X connect 177 0 120 0;
#X connect 177 0 121 0;
#X connect 177 0 122 0;
#X connect 178 0 123 0;
#X connect 178 0 124 0;
#X connect 178 0 125 0;
#X connect 179 0 126 0;
#X connect 179 0 127 0;
#X connect 179 0 128 0;
#X connect 180 0 107 0;
#X connect 180 0 108 0;
#X connect 180 0 109 0;
#X connect 180 0 118 0;
#X connect 181 0 145 0;
#X connect 181 0 146 0;
#X connect 181 0 147 0;
#X connect 182 0 171 0;
#X connect 182 0 170 0;
#X connect 182 0 168 0;
#X connect 182 0 169 0;
#X connect 183 0 176 0;
#X connect 183 0 177 0;
#X connect 183 0 178 0;
#X connect 183 0 179 0;
#X connect 183 0 180 0;
#X connect 183 0 181 0;
#X connect 183 0 182 0;
#X connect 188 0 43 0;
#X connect 188 1 62 0;
#X connect 188 2 78 0;
#X connect 188 3 162 0;
#X connect 188 4 94 0;
#X connect 188 5 43 0;
#X connect 188 6 62 0;
#X connect 188 7 78 0;
#X connect 188 8 162 0;
#X connect 188 9 143 0;
#X connect 188 10 78 0;
#X connect 188 11 143 0;
#X connect 188 12 113 0;
#X connect 188 13 143 0;
#X connect 188 14 113 0;
#X connect 188 15 78 0;
#X connect 188 16 143 0;
#X connect 188 17 113 0;
#X connect 188 18 78 0;
#X connect 188 19 143 0;
#X connect 188 20 94 0;
#X connect 189 0 37 0;
#X connect 190 0 60 0;
#X connect 191 0 76 0;
#X connect 192 0 92 0;
#X connect 193 0 111 0;
#X connect 194 0 141 0;
#X connect 195 0 160 0;
#X connect 202 0 5 0;
#X connect 202 0 5 1;
#X coords 0 0 1 1 85 60 0;
