#N canvas 701 152 869 596 10;
#X obj 29 32 gemhead;
#X obj 29 74 separator;
#X obj 30 336 until;
#X obj 30 358 gemlist;
#X obj 257 233 int;
#X floatatom 257 262 5 0 0 0 - - -, f 5;
#X obj 29 153 t a a b b;
#X obj 171 177 bng 15 250 50 0 empty empty empty 17 7 0 10 -262144
-1 -1;
#X obj 171 197 f \$1;
#X obj 171 218 t f f;
#X floatatom 171 242 5 0 0 0 - - -, f 5;
#X obj 7 3 inlet;
#X msg 30 313 \$1;
#X obj 257 209 tabread h;
#X obj 31 546 alpha;
#X obj 29 126 rotateXYZ 0 0 0;
#X obj 199 422 hsl 128 15 0 1 0 0 empty empty empty -2 -8 0 10 -262144
-1 -1 0 1;
#X obj 260 471 hsl 128 15 0 1 0 0 empty empty empty -2 -8 0 10 -262144
-1 -1 7874 1;
#X floatatom 257 491 5 0 0 0 - - -, f 5;
#X floatatom 196 442 5 0 0 0 - - -, f 5;
#X obj 196 392 * 0.08;
#X obj 31 410 translateXYZ 0 0.2 0;
#X obj 30 386 rectangle 0.4 0.05;
#X obj 31 525 colorRGB 0.8 0 0.2 1;
#X obj 257 445 * 0.01;
#X obj 171 264 - 10;
#X obj 29 97 translateXYZ 3.5 -23 -8;
#X obj 87 274 * 20;
#X obj 435 100 separator;
#X obj 436 362 until;
#X obj 436 384 gemlist;
#X obj 664 300 int;
#X floatatom 653 371 5 0 0 0 - - -, f 5;
#X obj 435 179 t a a b b;
#X obj 577 203 bng 15 250 50 0 empty empty empty 17 7 0 10 -262144
-1 -1;
#X obj 577 223 f \$1;
#X obj 577 244 t f f;
#X floatatom 577 268 5 0 0 0 - - -, f 5;
#X msg 436 339 \$1;
#X obj 663 207 tabread h;
#X obj 437 572 alpha;
#X obj 605 448 hsl 128 15 0 1 0 0 empty empty empty -2 -8 0 10 -262144
-1 -1 0 1;
#X obj 666 497 hsl 128 15 0 1 0 0 empty empty empty -2 -8 0 10 -262144
-1 -1 12700 1;
#X floatatom 663 517 5 0 0 0 - - -, f 5;
#X floatatom 602 468 5 0 0 0 - - -, f 5;
#X obj 436 412 rectangle 0.4 0.05;
#X obj 437 551 colorRGB 0.8 0 0.2 1;
#X obj 436 442 translateXYZ 0 0.2 0;
#X obj 663 471 * 0.07;
#X obj 602 417 * 0.07;
#X obj 538 152 * 70;
#X obj 530 291 * 1.4;
#X obj 705 263 * 2;
#X obj 733 358 + 20;
#X obj 744 233 mod 30;
#X obj 435 152 rotateXYZ 0 0 1;
#X obj 434 121 translateXYZ 18 -26 -15;
#X obj 530 315 + 11;
#X connect 0 0 28 0;
#X connect 0 0 1 0;
#X connect 1 0 26 0;
#X connect 2 0 3 0;
#X connect 3 0 22 0;
#X connect 4 0 5 0;
#X connect 5 0 12 0;
#X connect 5 0 24 0;
#X connect 6 0 12 0;
#X connect 6 1 3 1;
#X connect 6 2 5 0;
#X connect 6 3 7 0;
#X connect 7 0 8 0;
#X connect 8 0 9 0;
#X connect 9 0 10 0;
#X connect 9 1 13 0;
#X connect 10 0 20 0;
#X connect 10 0 25 0;
#X connect 10 0 27 0;
#X connect 12 0 2 0;
#X connect 13 0 4 0;
#X connect 15 0 6 0;
#X connect 16 0 19 0;
#X connect 17 0 18 0;
#X connect 18 0 23 3;
#X connect 19 0 23 1;
#X connect 20 0 16 0;
#X connect 21 0 23 0;
#X connect 22 0 21 0;
#X connect 23 0 14 0;
#X connect 24 0 17 0;
#X connect 25 0 26 1;
#X connect 26 0 15 0;
#X connect 27 0 15 2;
#X connect 28 0 56 0;
#X connect 29 0 30 0;
#X connect 30 0 45 0;
#X connect 31 0 32 0;
#X connect 32 0 38 0;
#X connect 32 0 48 0;
#X connect 33 0 38 0;
#X connect 33 1 30 1;
#X connect 33 2 32 0;
#X connect 33 3 34 0;
#X connect 34 0 35 0;
#X connect 35 0 36 0;
#X connect 36 0 37 0;
#X connect 36 1 39 0;
#X connect 37 0 49 0;
#X connect 37 0 50 0;
#X connect 37 0 51 0;
#X connect 38 0 29 0;
#X connect 39 0 31 0;
#X connect 41 0 44 0;
#X connect 42 0 43 0;
#X connect 43 0 46 1;
#X connect 44 0 46 2;
#X connect 45 0 47 0;
#X connect 46 0 40 0;
#X connect 47 0 46 0;
#X connect 48 0 42 0;
#X connect 49 0 41 0;
#X connect 50 0 55 2;
#X connect 51 0 57 0;
#X connect 52 0 53 0;
#X connect 53 0 32 0;
#X connect 54 0 52 0;
#X connect 55 0 33 0;
#X connect 56 0 55 0;
#X connect 57 0 56 1;
