#N canvas 12 132 1086 594 10;
#X obj 123 3 gemhead;
#X obj 123 23 separator;
#X obj 123 353 alpha;
#X obj 123 374 translateXYZ 0 0.7 0;
#X msg 123 228 \$1;
#X obj 123 249 until;
#X obj 123 270 gemlist;
#X obj 261 162 int;
#X floatatom 261 188 5 0 0 0 - - -;
#X obj 261 52 bng 15 250 50 0 empty empty empty 17 7 0 10 -262144 -1
-1;
#X obj 261 72 f \$1;
#X obj 260 97 tabread h;
#X obj 123 59 t a a a;
#X obj 123 332 colorRGB 0.2 0.5 0.85 1;
#X obj 258 285 / 100;
#X floatatom 258 306 5 0 0 0 - - -;
#X obj 456 7 inlet;
#X msg 37 234 draw line;
#X floatatom 348 78 5 0 0 0 - - -;
#X obj 123 293 rectangle 0.5 0.2;
#X obj 213 11 translateXYZ 0 -10 -15;
#X obj 260 118 / 2;
#X msg 34 312 draw fill;
#X obj 554 35 gemhead;
#X obj 554 58 separator;
#X obj 554 293 translateXYZ;
#X obj 600 157 bng 15 250 50 0 empty empty empty 17 7 0 10 -262144
-1 -1;
#X obj 600 177 f \$1;
#X floatatom 600 232 5 0 0 0 - - -;
#X obj 595 344 hsl 128 15 0 1 0 0 empty empty empty -2 -8 0 10 -262144
-1 -1 0 1;
#X floatatom 592 364 5 0 0 0 - - -;
#X obj 633 367 hsl 128 15 0 1 0 0 empty empty empty -2 -8 0 10 -262144
-1 -1 0 1;
#X floatatom 630 387 5 0 0 0 - - -;
#X obj 673 392 hsl 128 15 0 1 0 0 empty empty empty -2 -8 0 10 -262144
-1 -1 0 1;
#X floatatom 670 412 5 0 0 0 - - -;
#X floatatom 729 424 5 0 0 0 - - -;
#X obj 554 487 alpha;
#X floatatom 729 477 5 0 0 0 - - -;
#X obj 554 464 colorRGB 0.385 0.574 0.464;
#X obj 812 300 tabread h;
#X obj 554 134 t a a;
#X floatatom 636 177 5 0 0 0 - - -;
#X obj 729 450 * 0.05;
#X obj 723 147 hsl 128 15 0 127 0 0 empty empty empty -2 -8 0 10 -262144
-1 -1 0 1;
#X text 711 85 -20 -15 -15;
#X obj 554 105 rotateXYZ 0 0 180;
#X floatatom 811 368 5 0 0 0 - - -;
#X obj 600 209 * 0.5;
#X obj 812 320 mod 20;
#X obj 812 342 / 20;
#X obj 554 81 translateXYZ -10 5 -10;
#X obj 554 516 square 0.2;
#X obj 434 240 outlet;
#X floatatom 694 22 5 0 0 0 - - -;
#X obj 667 41 * 2;
#X obj 635 55 +;
#X obj 635 6 loadbang;
#X msg 635 27 -10;
#X obj 694 1 r sq1;
#X connect 1 0 20 0;
#X connect 2 0 3 0;
#X connect 4 0 5 0;
#X connect 5 0 6 0;
#X connect 6 0 19 0;
#X connect 7 0 8 0;
#X connect 8 0 4 0;
#X connect 8 0 14 0;
#X connect 9 0 10 0;
#X connect 10 0 11 0;
#X connect 10 0 18 0;
#X connect 11 0 21 0;
#X connect 12 0 4 0;
#X connect 12 1 6 1;
#X connect 12 2 9 0;
#X connect 13 0 2 0;
#X connect 14 0 15 0;
#X connect 15 0 13 4;
#X connect 17 0 19 0;
#X connect 19 0 13 0;
#X connect 20 0 12 0;
#X connect 21 0 7 0;
#X connect 22 0 19 0;
#X connect 23 0 24 0;
#X connect 24 0 50 0;
#X connect 25 0 38 0;
#X connect 26 0 27 0;
#X connect 27 0 41 0;
#X connect 27 0 47 0;
#X connect 28 0 25 2;
#X connect 28 0 35 0;
#X connect 29 0 30 0;
#X connect 30 0 38 1;
#X connect 31 0 32 0;
#X connect 32 0 38 2;
#X connect 33 0 34 0;
#X connect 34 0 38 3;
#X connect 35 0 42 0;
#X connect 36 0 51 0;
#X connect 38 0 36 0;
#X connect 39 0 48 0;
#X connect 40 0 25 0;
#X connect 40 1 26 0;
#X connect 41 0 39 0;
#X connect 42 0 37 0;
#X connect 45 0 40 0;
#X connect 46 0 38 1;
#X connect 46 0 38 2;
#X connect 46 0 38 4;
#X connect 47 0 28 0;
#X connect 48 0 49 0;
#X connect 49 0 46 0;
#X connect 50 0 45 0;
#X connect 53 0 54 1;
#X connect 54 0 55 1;
#X connect 55 0 50 1;
#X connect 56 0 57 0;
#X connect 57 0 55 0;
#X connect 58 0 53 0;
