#N canvas 855 96 1079 814 10;
#X obj 123 3 gemhead;
#X obj 123 23 separator;
#X obj 123 249 until;
#X obj 123 270 gemlist;
#X obj 456 7 inlet;
#X obj 643 445 translateXYZ;
#X obj 689 309 bng 15 250 50 0 empty empty empty 17 7 0 10 -262144
-1 -1;
#X obj 689 329 f \$1;
#X floatatom 689 384 5 0 0 0 - - -;
#X obj 684 496 hsl 128 15 0 1 0 0 empty empty empty -2 -8 0 10 -262144
-1 -1 0 1;
#X floatatom 681 516 5 0 0 0 - - -;
#X obj 722 519 hsl 128 15 0 1 0 0 empty empty empty -2 -8 0 10 -262144
-1 -1 0 1;
#X floatatom 719 539 5 0 0 0 - - -;
#X obj 762 544 hsl 128 15 0 1 0 0 empty empty empty -2 -8 0 10 -262144
-1 -1 0 1;
#X floatatom 759 564 5 0 0 0 - - -;
#X floatatom 818 576 5 0 0 0 - - -;
#X obj 643 639 alpha;
#X floatatom 818 629 5 0 0 0 - - -;
#X obj 643 616 colorRGB 0.385 0.574 0.464;
#X obj 901 452 tabread h;
#X obj 643 286 t a a;
#X floatatom 725 329 5 0 0 0 - - -;
#X obj 818 602 * 0.05;
#X obj 643 257 rotateXYZ 0 0 180;
#X floatatom 900 520 5 0 0 0 - - -;
#X obj 689 361 * 0.5;
#X obj 901 472 mod 20;
#X obj 901 494 / 20;
#X obj 643 668 square 0.2;
#X obj 643 232 translateXYZ 10 5 -10;
#X obj 123 59 t a a;
#X obj 23 285 gemhead;
#X obj 643 689 separator;
#X obj 125 552 translateXYZ;
#X obj 171 416 bng 15 250 50 0 empty empty empty 17 7 0 10 -262144
-1 -1;
#X obj 171 436 f \$1;
#X floatatom 171 491 5 0 0 0 - - -;
#X obj 166 603 hsl 128 15 0 1 0 0 empty empty empty -2 -8 0 10 -262144
-1 -1 0 1;
#X floatatom 163 623 5 0 0 0 - - -;
#X obj 204 626 hsl 128 15 0 1 0 0 empty empty empty -2 -8 0 10 -262144
-1 -1 0 1;
#X floatatom 201 646 5 0 0 0 - - -;
#X obj 244 651 hsl 128 15 0 1 0 0 empty empty empty -2 -8 0 10 -262144
-1 -1 0 1;
#X floatatom 241 671 5 0 0 0 - - -;
#X floatatom 300 683 5 0 0 0 - - -;
#X obj 125 746 alpha;
#X floatatom 300 736 5 0 0 0 - - -;
#X obj 125 723 colorRGB 0.385 0.574 0.464;
#X obj 383 559 tabread h;
#X obj 125 393 t a a;
#X floatatom 207 436 5 0 0 0 - - -;
#X obj 300 709 * 0.05;
#X obj 125 364 rotateXYZ 0 0 180;
#X floatatom 382 627 5 0 0 0 - - -;
#X obj 171 468 * 0.5;
#X obj 383 579 mod 20;
#X obj 383 601 / 20;
#X msg 123 227 11;
#X obj 123 303 square 0.1;
#X obj 125 338 translateXYZ 0 0.25 0;
#X obj 645 121 gemhead;
#X obj 645 141 separator;
#X obj 467 176 outlet;
#X obj 643 718 translateXYZ -0.25 0 0;
#X connect 0 0 1 0;
#X connect 2 0 3 0;
#X connect 3 0 57 0;
#X connect 5 0 18 0;
#X connect 6 0 7 0;
#X connect 7 0 21 0;
#X connect 7 0 25 0;
#X connect 8 0 5 2;
#X connect 8 0 15 0;
#X connect 9 0 10 0;
#X connect 10 0 18 1;
#X connect 11 0 12 0;
#X connect 12 0 18 2;
#X connect 13 0 14 0;
#X connect 14 0 18 3;
#X connect 15 0 22 0;
#X connect 16 0 28 0;
#X connect 18 0 16 0;
#X connect 19 0 26 0;
#X connect 20 0 5 0;
#X connect 20 1 6 0;
#X connect 21 0 19 0;
#X connect 22 0 17 0;
#X connect 23 0 20 0;
#X connect 24 0 18 1;
#X connect 24 0 18 2;
#X connect 24 0 18 4;
#X connect 25 0 8 0;
#X connect 26 0 27 0;
#X connect 27 0 24 0;
#X connect 28 0 32 0;
#X connect 29 0 23 0;
#X connect 32 0 62 0;
#X connect 33 0 46 0;
#X connect 34 0 35 0;
#X connect 35 0 49 0;
#X connect 35 0 53 0;
#X connect 36 0 33 2;
#X connect 36 0 43 0;
#X connect 37 0 38 0;
#X connect 38 0 46 1;
#X connect 39 0 40 0;
#X connect 40 0 46 2;
#X connect 41 0 42 0;
#X connect 42 0 46 3;
#X connect 43 0 50 0;
#X connect 46 0 44 0;
#X connect 47 0 54 0;
#X connect 48 0 33 0;
#X connect 48 1 34 0;
#X connect 49 0 47 0;
#X connect 50 0 45 0;
#X connect 51 0 48 0;
#X connect 52 0 46 1;
#X connect 52 0 46 2;
#X connect 52 0 46 4;
#X connect 53 0 36 0;
#X connect 54 0 55 0;
#X connect 55 0 52 0;
#X connect 56 0 2 0;
#X connect 57 0 58 0;
#X connect 58 0 51 0;
#X connect 59 0 60 0;
#X connect 60 0 29 0;
