#N canvas 264 151 450 300 10;
#X obj 123 3 gemhead;
#X obj 123 23 separator;
#X obj 123 99 until;
#X obj 123 51 t a a;
#X msg 123 77 11;
#X obj 123 120 gemlist;
#X obj 123 141 floors2;
#X obj 123 162 translate -0.3 0 0;
#X connect 0 0 1 0;
#X connect 1 0 3 0;
#X connect 2 0 5 0;
#X connect 3 0 4 0;
#X connect 3 1 5 1;
#X connect 4 0 2 0;
#X connect 5 0 6 0;
#X connect 6 0 7 0;
