#N canvas 865 52 723 742 10;
#X obj 30 53 gemhead;
#X obj 30 74 separator;
#X obj 30 336 until;
#X obj 30 358 gemlist;
#X floatatom 200 309 5 0 0 0 - - -;
#X obj 30 153 t a a b b;
#X obj 151 177 bng 15 250 50 0 empty empty empty 17 7 0 10 -262144
-1 -1;
#X obj 151 197 f \$1;
#X obj 151 218 t f f;
#X floatatom 151 239 5 0 0 0 - - -;
#X obj 248 52 inlet;
#X msg 30 313 \$1;
#X obj 200 239 tabread h;
#X obj 30 481 alpha;
#X obj 231 118 hsl 128 15 0 127 0 0 empty empty empty -2 -8 0 10 -262144
-1 -1 0 1;
#X obj 30 459 colorRGB 0.8 0 0.2 1;
#X floatatom 228 138 5 0 0 0 - - -;
#X obj 30 117 rotateXYZ 0 0 0;
#X obj 258 390 bng 15 250 50 0 empty empty empty 17 7 0 10 -262144
-1 -1;
#X text 111 361 0.4 0.03 0.4;
#X obj 30 410 translateXYZ 0 0.2 0;
#X obj 30 386 rectangle 0.4 0.05;
#X obj 200 260 / 2;
#X obj 200 281 int;
#X obj 30 95 translateXYZ 18 -9.05 -5;
#X connect 0 0 1 0;
#X connect 1 0 24 0;
#X connect 2 0 3 0;
#X connect 3 0 21 0;
#X connect 4 0 11 0;
#X connect 5 0 11 0;
#X connect 5 1 3 1;
#X connect 5 2 4 0;
#X connect 5 3 6 0;
#X connect 6 0 7 0;
#X connect 7 0 8 0;
#X connect 8 0 9 0;
#X connect 8 1 12 0;
#X connect 9 0 24 1;
#X connect 11 0 2 0;
#X connect 12 0 22 0;
#X connect 14 0 16 0;
#X connect 14 0 17 2;
#X connect 15 0 13 0;
#X connect 17 0 5 0;
#X connect 20 0 15 0;
#X connect 21 0 20 0;
#X connect 22 0 23 0;
#X connect 23 0 4 0;
#X connect 24 0 17 0;
