#N canvas 554 0 905 772 10;
#X obj 456 7 inlet;
#X obj 53 358 translateXYZ;
#X obj 99 222 bng 15 250 50 0 empty empty empty 17 7 0 10 -262144 -1
-1;
#X obj 99 242 f \$1;
#X floatatom 99 297 5 0 0 0 - - -, f 5;
#X obj 53 552 alpha;
#X obj 53 529 colorRGB 0.385 0.574 0.464;
#X obj 135 357 tabread h;
#X obj 53 199 t a a;
#X floatatom 135 242 5 0 0 0 - - -, f 5;
#X obj 53 170 rotateXYZ 0 0 180;
#X floatatom 134 425 5 0 0 0 - - -, f 5;
#X obj 99 274 * 0.5;
#X obj 135 377 mod 20;
#X obj 135 399 / 20;
#X obj 53 581 square 0.2;
#X obj 53 106 separator;
#X obj 235 360 translateXYZ;
#X obj 281 224 bng 15 250 50 0 empty empty empty 17 7 0 10 -262144
-1 -1;
#X obj 281 244 f \$1;
#X floatatom 281 299 5 0 0 0 - - -, f 5;
#X obj 235 554 alpha;
#X obj 235 531 colorRGB 0.385 0.574 0.464;
#X obj 317 359 tabread h;
#X obj 235 201 t a a;
#X floatatom 317 244 5 0 0 0 - - -, f 5;
#X floatatom 316 427 5 0 0 0 - - -, f 5;
#X obj 281 276 * 0.5;
#X obj 317 379 mod 20;
#X obj 317 401 / 20;
#X obj 235 583 square 0.2;
#X obj 235 108 separator;
#X obj 235 172 rotateXYZ 0 0 0;
#X text 55 612 yellow;
#X text 233 613 pink;
#X obj 413 361 translateXYZ;
#X obj 459 225 bng 15 250 50 0 empty empty empty 17 7 0 10 -262144
-1 -1;
#X obj 459 245 f \$1;
#X floatatom 459 300 5 0 0 0 - - -, f 5;
#X obj 413 555 alpha;
#X obj 413 532 colorRGB 0.385 0.574 0.464;
#X obj 495 360 tabread h;
#X obj 413 202 t a a;
#X floatatom 495 245 5 0 0 0 - - -, f 5;
#X floatatom 494 428 5 0 0 0 - - -, f 5;
#X obj 459 277 * 0.5;
#X obj 495 380 mod 20;
#X obj 495 402 / 20;
#X obj 413 584 square 0.2;
#X obj 413 109 separator;
#X text 411 614 blue;
#X obj 585 363 translateXYZ;
#X obj 631 227 bng 15 250 50 0 empty empty empty 17 7 0 10 -262144
-1 -1;
#X obj 631 247 f \$1;
#X floatatom 631 302 5 0 0 0 - - -, f 5;
#X obj 585 557 alpha;
#X obj 585 534 colorRGB 0.385 0.574 0.464;
#X obj 667 362 tabread h;
#X obj 585 204 t a a;
#X floatatom 667 247 5 0 0 0 - - -, f 5;
#X floatatom 666 430 5 0 0 0 - - -, f 5;
#X obj 631 279 * 0.5;
#X obj 667 382 mod 20;
#X obj 667 404 / 20;
#X obj 585 586 square 0.2;
#X obj 585 111 separator;
#X obj 585 174 rotateXYZ 0 20 0;
#X obj 778 367 translateXYZ;
#X obj 824 231 bng 15 250 50 0 empty empty empty 17 7 0 10 -262144
-1 -1;
#X obj 824 251 f \$1;
#X floatatom 824 306 5 0 0 0 - - -, f 5;
#X obj 778 561 alpha;
#X obj 778 538 colorRGB 0.385 0.574 0.464;
#X obj 860 366 tabread h;
#X obj 778 208 t a a;
#X floatatom 860 251 5 0 0 0 - - -, f 5;
#X floatatom 859 434 5 0 0 0 - - -, f 5;
#X obj 824 283 * 0.5;
#X obj 860 386 mod 20;
#X obj 860 408 / 20;
#X obj 778 590 square 0.2;
#X obj 778 115 separator;
#X text 780 621 yellow;
#X obj 413 177 rotateXYZ 0 10 180;
#X obj 53 145 translateXYZ 10 -0.25 -5;
#X obj 235 147 translateXYZ 9.5 -8.75 -5;
#X obj 585 149 translateXYZ 8.69 -8.75 -5;
#X obj 413 148 translateXYZ 9.05 -0.24 -5;
#X obj 778 179 rotateXYZ 0 40 180;
#X obj 778 154 translateXYZ 8.465 -0.25 -5;
#X obj 58 1018 translateXYZ;
#X obj 104 882 bng 15 250 50 0 empty empty empty 17 7 0 10 -262144
-1 -1;
#X obj 104 902 f \$1;
#X floatatom 104 957 5 0 0 0 - - -, f 5;
#X obj 58 1212 alpha;
#X obj 58 1189 colorRGB 0.385 0.574 0.464;
#X obj 140 1017 tabread h;
#X obj 58 859 t a a;
#X floatatom 140 902 5 0 0 0 - - -, f 5;
#X floatatom 139 1085 5 0 0 0 - - -, f 5;
#X obj 58 768 separator;
#X obj 244 779 separator;
#X text 66 1281 yellow;
#X obj 59 1240 rectangle 0.3 0.08;
#X obj 104 933 * 0.25;
#X obj 244 1022 translateXYZ;
#X obj 290 886 bng 15 250 50 0 empty empty empty 17 7 0 10 -262144
-1 -1;
#X obj 290 906 f \$1;
#X floatatom 290 961 5 0 0 0 - - -, f 5;
#X obj 244 1216 alpha;
#X obj 244 1193 colorRGB 0.385 0.574 0.464;
#X obj 326 1021 tabread h;
#X obj 244 863 t a a;
#X floatatom 326 906 5 0 0 0 - - -, f 5;
#X floatatom 325 1089 5 0 0 0 - - -, f 5;
#X obj 326 1041 mod 20;
#X obj 326 1063 * 0.08;
#X obj 245 1244 rectangle 0.3 0.08;
#X obj 290 937 * 0.25;
#X obj 58 833 rotateXYZ 0 -20 180;
#X obj 58 804 translateXYZ -3.8 0.2 1;
#X obj 244 834 rotateXYZ 0 50 180;
#X obj 244 806 translateXYZ -3.1 0.21 1;
#X obj 140 1059 * 0.1;
#X obj 140 1037 mod 25;
#X obj 52 30 gemhead 8;
#X obj 57 716 gemhead 10;
#X obj 458 1013 translateXYZ;
#X obj 504 877 bng 15 250 50 0 empty empty empty 17 7 0 10 -262144
-1 -1;
#X obj 504 897 f \$1;
#X floatatom 504 952 5 0 0 0 - - -, f 5;
#X obj 458 1207 alpha;
#X obj 540 1012 tabread h;
#X obj 458 854 t a a;
#X floatatom 540 897 5 0 0 0 - - -, f 5;
#X floatatom 543 1081 5 0 0 0 - - -, f 5;
#X obj 458 763 separator;
#X obj 644 774 separator;
#X obj 644 1017 translateXYZ;
#X obj 690 881 bng 15 250 50 0 empty empty empty 17 7 0 10 -262144
-1 -1;
#X obj 690 901 f \$1;
#X floatatom 690 956 5 0 0 0 - - -, f 5;
#X obj 644 1211 alpha;
#X obj 726 1016 tabread h;
#X obj 644 858 t a a;
#X floatatom 726 901 5 0 0 0 - - -, f 5;
#X floatatom 725 1084 5 0 0 0 - - -, f 5;
#X obj 726 1036 mod 20;
#X obj 726 1058 * 0.08;
#X obj 540 1054 * 0.1;
#X obj 540 1032 mod 25;
#X obj 457 711 gemhead 12;
#X obj 809 771 separator;
#X obj 809 1014 translateXYZ;
#X obj 855 878 bng 15 250 50 0 empty empty empty 17 7 0 10 -262144
-1 -1;
#X obj 855 898 f \$1;
#X floatatom 855 953 5 0 0 0 - - -, f 5;
#X obj 809 1208 alpha;
#X obj 891 1013 tabread h;
#X obj 809 855 t a a;
#X floatatom 891 898 5 0 0 0 - - -, f 5;
#X floatatom 890 1081 5 0 0 0 - - -, f 5;
#X obj 891 1033 mod 20;
#X obj 891 1055 * 0.08;
#X obj 644 829 rotateXYZ 0 0 180;
#X obj 810 827 rotateXYZ 0 30 180;
#X obj 504 927 * 0.3;
#X obj 457 1231 rectangle 0.3 0.05;
#X obj 496 1537 translateXYZ;
#X obj 542 1401 bng 15 250 50 0 empty empty empty 17 7 0 10 -262144
-1 -1;
#X obj 542 1421 f \$1;
#X floatatom 542 1476 5 0 0 0 - - -, f 5;
#X obj 496 1731 alpha;
#X obj 578 1536 tabread h;
#X obj 496 1378 t a a;
#X floatatom 578 1421 5 0 0 0 - - -, f 5;
#X floatatom 577 1604 5 0 0 0 - - -, f 5;
#X obj 496 1287 separator;
#X obj 578 1556 mod 25;
#X obj 496 1351 rotateXYZ 0 -45 180;
#X obj 542 1451 * 0.3;
#X obj 496 1757 rectangle 0.3 0.05;
#X obj 496 1320 translateXYZ 0.45 -0.05 1;
#X obj 690 933 * 0.32;
#X obj 645 1239 rectangle 0.4 0.05;
#X obj 645 801 translateXYZ 1.2 1.08 1;
#X obj 727 1287 separator;
#X obj 727 1530 translateXYZ;
#X obj 773 1394 bng 15 250 50 0 empty empty empty 17 7 0 10 -262144
-1 -1;
#X obj 773 1414 f \$1;
#X floatatom 773 1469 5 0 0 0 - - -, f 5;
#X obj 727 1724 alpha;
#X obj 727 1371 t a a;
#X obj 773 1446 * 0.32;
#X obj 728 1752 rectangle 0.4 0.05;
#X obj 817 1531 tabread h;
#X floatatom 817 1416 5 0 0 0 - - -, f 5;
#X floatatom 816 1599 5 0 0 0 - - -, f 5;
#X obj 817 1551 mod 20;
#X obj 817 1573 * 0.08;
#X obj 810 1236 rectangle 0.3 0.05;
#X obj 809 798 translateXYZ 1.85 1.02 1;
#X obj 855 929 * 0.3;
#X obj 896 1286 separator;
#X obj 896 1529 translateXYZ;
#X obj 942 1393 bng 15 250 50 0 empty empty empty 17 7 0 10 -262144
-1 -1;
#X obj 942 1413 f \$1;
#X floatatom 942 1468 5 0 0 0 - - -, f 5;
#X obj 896 1723 alpha;
#X obj 978 1528 tabread h;
#X obj 896 1370 t a a;
#X floatatom 978 1413 5 0 0 0 - - -, f 5;
#X floatatom 977 1596 5 0 0 0 - - -, f 5;
#X obj 978 1548 mod 20;
#X obj 897 1342 rotateXYZ 0 30 180;
#X obj 897 1751 rectangle 0.3 0.05;
#X obj 942 1444 * 0.3;
#X obj 896 1313 translateXYZ 1.85 0.86 1;
#X obj 978 1570 * 0.095;
#X obj 458 1180 colorRGB 0.541 0.451 0.859;
#X obj 644 1186 colorRGB 0.953 0.325 0.616;
#X obj 809 1185 colorRGB 0.145 0.184 0.569;
#X obj 496 1706 colorRGB 0.8 0.769 0.384;
#X obj 727 1699 colorRGB 0.8 0.769 0.384;
#X obj 896 1698 colorRGB 0.8 0.769 0.384;
#X obj 578 1578 * 0.05;
#X obj 727 1341 rotateXYZ 0 0 0;
#X obj 727 1314 translateXYZ 1.2 -4.5 1;
#X obj 458 827 rotateXYZ 0 -45 0;
#X obj 458 796 translateXYZ 0.45 -4.12 1;
#X connect 1 0 6 0;
#X connect 2 0 3 0;
#X connect 3 0 9 0;
#X connect 3 0 12 0;
#X connect 4 0 1 2;
#X connect 5 0 15 0;
#X connect 6 0 5 0;
#X connect 7 0 13 0;
#X connect 8 0 1 0;
#X connect 8 1 2 0;
#X connect 9 0 7 0;
#X connect 10 0 8 0;
#X connect 11 0 6 1;
#X connect 11 0 6 2;
#X connect 11 0 6 4;
#X connect 12 0 4 0;
#X connect 13 0 14 0;
#X connect 14 0 11 0;
#X connect 16 0 84 0;
#X connect 17 0 22 0;
#X connect 18 0 19 0;
#X connect 19 0 25 0;
#X connect 19 0 27 0;
#X connect 20 0 17 2;
#X connect 21 0 30 0;
#X connect 22 0 21 0;
#X connect 23 0 28 0;
#X connect 24 0 17 0;
#X connect 24 1 18 0;
#X connect 25 0 23 0;
#X connect 26 0 22 1;
#X connect 26 0 22 4;
#X connect 27 0 20 0;
#X connect 28 0 29 0;
#X connect 29 0 26 0;
#X connect 31 0 85 0;
#X connect 32 0 24 0;
#X connect 35 0 40 0;
#X connect 36 0 37 0;
#X connect 37 0 43 0;
#X connect 37 0 45 0;
#X connect 38 0 35 2;
#X connect 39 0 48 0;
#X connect 40 0 39 0;
#X connect 41 0 46 0;
#X connect 42 0 35 0;
#X connect 42 1 36 0;
#X connect 43 0 41 0;
#X connect 44 0 40 4;
#X connect 44 0 40 3;
#X connect 45 0 38 0;
#X connect 46 0 47 0;
#X connect 47 0 44 0;
#X connect 49 0 87 0;
#X connect 51 0 56 0;
#X connect 52 0 53 0;
#X connect 53 0 59 0;
#X connect 53 0 61 0;
#X connect 54 0 51 2;
#X connect 55 0 64 0;
#X connect 56 0 55 0;
#X connect 57 0 62 0;
#X connect 58 0 51 0;
#X connect 58 1 52 0;
#X connect 59 0 57 0;
#X connect 60 0 56 4;
#X connect 60 0 56 3;
#X connect 60 0 56 2;
#X connect 61 0 54 0;
#X connect 62 0 63 0;
#X connect 63 0 60 0;
#X connect 65 0 86 0;
#X connect 66 0 58 0;
#X connect 67 0 72 0;
#X connect 68 0 69 0;
#X connect 69 0 75 0;
#X connect 69 0 77 0;
#X connect 70 0 67 2;
#X connect 71 0 80 0;
#X connect 72 0 71 0;
#X connect 73 0 78 0;
#X connect 74 0 67 0;
#X connect 74 1 68 0;
#X connect 75 0 73 0;
#X connect 76 0 72 1;
#X connect 76 0 72 2;
#X connect 76 0 72 4;
#X connect 77 0 70 0;
#X connect 78 0 79 0;
#X connect 79 0 76 0;
#X connect 81 0 89 0;
#X connect 83 0 42 0;
#X connect 84 0 10 0;
#X connect 85 0 32 0;
#X connect 86 0 66 0;
#X connect 87 0 83 0;
#X connect 88 0 74 0;
#X connect 89 0 88 0;
#X connect 90 0 95 0;
#X connect 91 0 92 0;
#X connect 92 0 98 0;
#X connect 92 0 104 0;
#X connect 93 0 90 2;
#X connect 94 0 103 0;
#X connect 95 0 94 0;
#X connect 96 0 124 0;
#X connect 97 0 90 0;
#X connect 97 1 91 0;
#X connect 98 0 96 0;
#X connect 99 0 95 1;
#X connect 99 0 95 2;
#X connect 99 0 95 4;
#X connect 100 0 120 0;
#X connect 101 0 122 0;
#X connect 104 0 93 0;
#X connect 105 0 110 0;
#X connect 106 0 107 0;
#X connect 107 0 113 0;
#X connect 107 0 118 0;
#X connect 108 0 105 2;
#X connect 109 0 117 0;
#X connect 110 0 109 0;
#X connect 111 0 115 0;
#X connect 112 0 105 0;
#X connect 112 1 106 0;
#X connect 113 0 111 0;
#X connect 114 0 110 1;
#X connect 114 0 110 2;
#X connect 114 0 110 4;
#X connect 115 0 116 0;
#X connect 116 0 114 0;
#X connect 118 0 108 0;
#X connect 119 0 97 0;
#X connect 120 0 119 0;
#X connect 121 0 112 0;
#X connect 122 0 121 0;
#X connect 123 0 99 0;
#X connect 124 0 123 0;
#X connect 125 0 16 0;
#X connect 125 0 31 0;
#X connect 125 0 49 0;
#X connect 125 0 65 0;
#X connect 125 0 81 0;
#X connect 126 0 100 0;
#X connect 126 0 101 0;
#X connect 127 0 219 0;
#X connect 128 0 129 0;
#X connect 129 0 134 0;
#X connect 129 0 166 0;
#X connect 130 0 127 2;
#X connect 131 0 167 0;
#X connect 132 0 150 0;
#X connect 133 0 127 0;
#X connect 133 1 128 0;
#X connect 134 0 132 0;
#X connect 135 0 219 4;
#X connect 136 0 229 0;
#X connect 137 0 185 0;
#X connect 138 0 220 0;
#X connect 139 0 140 0;
#X connect 140 0 145 0;
#X connect 140 0 183 0;
#X connect 141 0 138 2;
#X connect 142 0 184 0;
#X connect 143 0 147 0;
#X connect 144 0 138 0;
#X connect 144 1 139 0;
#X connect 145 0 143 0;
#X connect 146 0 220 4;
#X connect 147 0 148 0;
#X connect 148 0 146 0;
#X connect 149 0 135 0;
#X connect 150 0 149 0;
#X connect 151 0 136 0;
#X connect 151 0 137 0;
#X connect 151 0 152 0;
#X connect 151 0 186 0;
#X connect 151 0 177 0;
#X connect 151 0 203 0;
#X connect 152 0 201 0;
#X connect 153 0 221 0;
#X connect 154 0 155 0;
#X connect 155 0 160 0;
#X connect 155 0 202 0;
#X connect 156 0 153 2;
#X connect 157 0 200 0;
#X connect 158 0 162 0;
#X connect 159 0 153 0;
#X connect 159 1 154 0;
#X connect 160 0 158 0;
#X connect 161 0 221 4;
#X connect 162 0 163 0;
#X connect 163 0 161 0;
#X connect 164 0 144 0;
#X connect 165 0 159 0;
#X connect 166 0 130 0;
#X connect 168 0 222 0;
#X connect 169 0 170 0;
#X connect 170 0 175 0;
#X connect 170 0 180 0;
#X connect 171 0 168 2;
#X connect 172 0 181 0;
#X connect 173 0 178 0;
#X connect 174 0 168 0;
#X connect 174 1 169 0;
#X connect 175 0 173 0;
#X connect 176 0 222 4;
#X connect 177 0 182 0;
#X connect 178 0 225 0;
#X connect 179 0 174 0;
#X connect 180 0 171 0;
#X connect 182 0 179 0;
#X connect 183 0 141 0;
#X connect 185 0 164 0;
#X connect 186 0 227 0;
#X connect 187 0 223 0;
#X connect 188 0 189 0;
#X connect 189 0 193 0;
#X connect 189 0 196 0;
#X connect 190 0 187 2;
#X connect 191 0 194 0;
#X connect 192 0 187 0;
#X connect 192 1 188 0;
#X connect 193 0 190 0;
#X connect 195 0 198 0;
#X connect 196 0 195 0;
#X connect 197 0 223 4;
#X connect 198 0 199 0;
#X connect 199 0 197 0;
#X connect 201 0 165 0;
#X connect 202 0 156 0;
#X connect 203 0 217 0;
#X connect 204 0 224 0;
#X connect 205 0 206 0;
#X connect 206 0 211 0;
#X connect 206 0 216 0;
#X connect 207 0 204 2;
#X connect 208 0 215 0;
#X connect 209 0 213 0;
#X connect 210 0 204 0;
#X connect 210 1 205 0;
#X connect 211 0 209 0;
#X connect 212 0 224 4;
#X connect 213 0 218 0;
#X connect 214 0 210 0;
#X connect 216 0 207 0;
#X connect 217 0 214 0;
#X connect 218 0 212 0;
#X connect 219 0 131 0;
#X connect 220 0 142 0;
#X connect 221 0 157 0;
#X connect 222 0 172 0;
#X connect 223 0 191 0;
#X connect 224 0 208 0;
#X connect 225 0 176 0;
#X connect 226 0 192 0;
#X connect 227 0 226 0;
#X connect 228 0 133 0;
#X connect 229 0 228 0;
