#N canvas 171 126 1302 649 10;
#N canvas 0 50 450 250 (subpatch) 0;
#X array music 4e+006 float 2;
#X coords 0 1 4e+006 -1 200 140 1;
#X restore 1522 504 graph;
#X obj 1527 663 loadbang;
#X obj 1527 705 soundfiler;
#X obj 35 169 gemwin;
#X msg 266 44 0 \, destroy;
#X obj 457 64 gemmouse, f 28;
#X floatatom 457 89 5 0 0 0 - - -, f 5;
#X floatatom 498 88 5 0 0 0 - - -, f 5;
#X obj 539 89 bng 15 250 50 0 empty empty empty 17 7 0 10 -262144 -1
-1;
#X msg 1527 684 read -resize m.wav music;
#X msg 48 841 open m.wav;
#X obj 48 863 readsf~;
#X obj 362 1052 env~ 16384;
#X floatatom 362 1073 5 0 0 0 - - -, f 5;
#X obj 362 1030 bp~ 150 10;
#X msg 1303 45 \; pd dsp 1 \;;
#X msg 199 804 0;
#X obj 124 1055 env~ 16384;
#X floatatom 124 1076 5 0 0 0 - - -, f 5;
#X obj 202 1053 env~ 16384;
#X floatatom 202 1074 5 0 0 0 - - -, f 5;
#X obj 47 1053 env~ 16384;
#X floatatom 47 1074 5 0 0 0 - - -, f 5;
#X obj 284 1053 env~ 16384;
#X floatatom 284 1074 5 0 0 0 - - -, f 5;
#X obj 284 1031 bp~ 130 10;
#X obj 439 1052 env~ 16384;
#X floatatom 439 1073 5 0 0 0 - - -, f 5;
#X obj 514 1052 env~ 16384;
#X floatatom 514 1073 5 0 0 0 - - -, f 5;
#X obj 589 1050 env~ 16384;
#X floatatom 589 1071 5 0 0 0 - - -, f 5;
#X obj 439 1030 bp~ 240 10;
#X obj 514 1030 bp~ 480 10;
#X obj 589 1027 bp~ 950 10;
#X obj 667 1048 env~ 16384;
#X floatatom 667 1068 5 0 0 0 - - -, f 5;
#X obj 667 1025 bp~ 1800 10;
#X obj 755 1048 env~ 16384;
#X floatatom 755 1069 5 0 0 0 - - -, f 5;
#X obj 848 1048 env~ 16384;
#X floatatom 848 1069 5 0 0 0 - - -, f 5;
#X obj 935 1048 env~ 16384;
#X floatatom 935 1069 5 0 0 0 - - -, f 5;
#X obj 755 1024 bp~ 3700 10;
#X obj 848 1025 bp~ 7400 10;
#X obj 935 1024 hip~ 14000;
#X obj 47 1031 lop~ 20;
#X obj 202 1031 bp~ 70 10;
#X obj 124 1032 bp~ 30 10;
#X obj 1015 945 building_eq;
#N canvas 0 50 450 250 (subpatch) 0;
#X array h 27 float 3;
#A 0 0 0 0 0 0 0 0 0 0 0 0 0 76.0491 70.9553 0 0 0 73.6392 0 0 57.0634
47.9662 76.5999 80.5895 80.5717 77.7144 68.0073;
#X coords 0 90 27 0 200 140 1 0 0;
#X restore 1072 569 graph;
#X msg 181 1121 1;
#X msg 259 1123 2;
#X obj 992 1104 loadbang;
#X obj 124 1143 tabwrite h;
#X obj 202 1144 tabwrite h;
#X obj 47 1115 tabwrite h;
#X obj 284 1147 tabwrite h;
#X obj 362 1148 tabwrite h;
#X obj 439 1151 tabwrite h;
#X obj 514 1150 tabwrite h;
#X obj 589 1151 tabwrite h;
#X obj 667 1152 tabwrite h;
#X obj 755 1156 tabwrite h;
#X obj 848 1154 tabwrite h;
#X obj 935 1156 tabwrite h;
#X msg 341 1126 3;
#X msg 419 1125 4;
#X msg 496 1129 5;
#X msg 571 1129 6;
#X msg 646 1129 7;
#X msg 724 1131 8;
#X msg 812 1135 9;
#X msg 905 1132 10;
#X msg 992 1135 11;
#X msg 1100 742 \; h resize 27 \; h bounds 0 90 27 0 \;;
#X msg 816 735 open alchol.wav;
#X msg 816 760 open dawn.wav;
#X msg 925 735 open In-Seoul.wav;
#X msg 925 760 open Lullaby-For-A-Cat.wav;
#X msg 931 784 open rain.wav;
#X msg 1103 800 open No-Different.wav;
#X msg 140 172 color 0.5 0.5 \$1;
#X obj 143 141 hsl 128 15 0 1 0 0 empty empty empty -2 -8 0 10 -262144
-1 -1 0 1;
#X obj 1303 25 loadbang;
#X msg 62 76 lighting 1;
#X obj 35 -4 loadbang;
#X obj 818 925 output~;
#X msg 55 290 open 3;
#X msg 171 295 close 3;
#X floatatom 55 346 5 0 0 0 - - -, f 5;
#X obj 55 265 loadbang;
#X obj 55 514 spigot;
#X obj 88 488 tgl 15 0 empty empty empty 17 7 0 10 -262144 -1 -1 0
1;
#X floatatom 55 535 5 0 0 0 - - -, f 5;
#X obj 88 440 ==, f 4;
#X floatatom 88 460 5 0 0 0 - - -, f 5;
#N canvas -233 264 1920 976 noise 0;
#X obj 105 42 inlet;
#X obj 643 127 noise~;
#X obj 644 362 vsl 15 128 0 1 0 0 empty empty empty 0 -9 0 10 -262144
-1 -1 12700 1;
#X obj 630 248 * 1;
#X floatatom 630 269 5 0 0 0 - - -, f 5;
#X obj 643 315 loadbang;
#X msg 643 336 1;
#X msg 644 503 \$1 20;
#X obj 644 524 line~;
#X obj 629 545 *~;
#X obj 724 363 vsl 15 128 0 1 0 0 empty empty empty 0 -9 0 10 -262144
-1 -1 10160 1;
#X floatatom 710 270 5 0 0 0 - - -, f 5;
#X obj 723 316 loadbang;
#X msg 724 504 \$1 20;
#X obj 724 525 line~;
#X obj 709 546 *~;
#X obj 803 365 vsl 15 128 0 1 0 0 empty empty empty 0 -9 0 10 -262144
-1 -1 4233 1;
#X floatatom 789 272 5 0 0 0 - - -, f 5;
#X obj 802 318 loadbang;
#X msg 803 506 \$1 20;
#X obj 803 527 line~;
#X obj 788 548 *~;
#X obj 883 366 vsl 15 128 0 1 0 0 empty empty empty 0 -9 0 10 -262144
-1 -1 3175 1;
#X floatatom 869 273 5 0 0 0 - - -, f 5;
#X obj 882 319 loadbang;
#X msg 883 507 \$1 20;
#X obj 883 528 line~;
#X obj 868 549 *~;
#X obj 958 364 vsl 15 128 0 1 0 0 empty empty empty 0 -9 0 10 -262144
-1 -1 2540 1;
#X floatatom 944 271 5 0 0 0 - - -, f 5;
#X obj 957 317 loadbang;
#X msg 958 505 \$1 20;
#X obj 958 526 line~;
#X obj 943 547 *~;
#X obj 1038 365 vsl 15 128 0 1 0 0 empty empty empty 0 -9 0 10 -262144
-1 -1 2117 1;
#X floatatom 1024 272 5 0 0 0 - - -, f 5;
#X obj 1037 318 loadbang;
#X msg 1038 506 \$1 20;
#X obj 1038 527 line~;
#X obj 1023 548 *~;
#X obj 1117 367 vsl 15 128 0 1 0 0 empty empty empty 0 -9 0 10 -262144
-1 -1 1814 1;
#X floatatom 1103 274 5 0 0 0 - - -, f 5;
#X obj 1116 320 loadbang;
#X msg 1117 508 \$1 20;
#X obj 1117 529 line~;
#X obj 1102 550 *~;
#X obj 1197 368 vsl 15 128 0 1 0 0 empty empty empty 0 -9 0 10 -262144
-1 -1 8890 1;
#X obj 1196 321 loadbang;
#X msg 1197 509 \$1 20;
#X obj 1197 530 line~;
#X obj 1182 551 *~;
#X obj 1271 364 vsl 15 128 0 1 0 0 empty empty empty 0 -9 0 10 -262144
-1 -1 1411 1;
#X floatatom 1257 271 5 0 0 0 - - -, f 5;
#X obj 1271 317 loadbang;
#X msg 1271 505 \$1 20;
#X obj 1271 526 line~;
#X obj 1256 547 *~;
#X obj 1351 365 vsl 15 128 0 1 0 0 empty empty empty 0 -9 0 10 -262144
-1 -1 1270 1;
#X floatatom 1337 272 5 0 0 0 - - -, f 5;
#X msg 1351 506 \$1 20;
#X obj 1351 527 line~;
#X obj 1336 548 *~;
#X obj 710 249 * 2;
#X obj 789 251 * 3;
#X obj 869 251 * 4;
#X obj 944 250 * 5;
#X obj 1024 251 * 6;
#X obj 1103 253 * 7;
#X obj 1183 254 * 8;
#X obj 1257 250 * 9;
#X obj 1337 251 * 10;
#X msg 802 339 0.3333;
#X msg 882 340 0.25;
#X msg 957 338 0.2;
#X msg 1037 339 0.16667;
#X msg 1116 341 0.142857;
#X msg 1270 338 0.111111;
#X msg 1350 339 0.1;
#X obj 45 165 dac~;
#X floatatom 1183 274 5 0 0 0 - - -, f 5;
#X obj 1350 319 loadbang;
#X floatatom 1009 118 5 0 0 0 - - -, f 5;
#X floatatom 1340 100 5 0 0 0 - - -, f 5;
#X obj 629 293 bp~ 60 60, f 11;
#X obj 709 293 bp~ 120 60, f 11;
#X obj 788 294 bp~ 180 60, f 11;
#X obj 869 294 bp~ 240 60;
#X obj 944 293 bp~ 300 60, f 11;
#X obj 1023 293 bp~ 360 60, f 11;
#X obj 1103 295 bp~ 420 60, f 11;
#X obj 1182 295 bp~ 480 60, f 11;
#X obj 1257 295 bp~ 540 60, f 11;
#X obj 1336 297 bp~ 600 60, f 11;
#X msg 723 337 0.8;
#X msg 1196 342 0.7;
#X obj 953 628 *~ 0.8;
#X msg 1009 93 80;
#X msg 1340 79 68;
#X obj 1009 67 loadbang;
#X msg 1169 626 0, f 4;
#X msg 1274 718 0.8;
#X obj 1169 602 loadbang;
#X obj 1237 690 sel 0 1, f 13;
#X obj 1237 625 bng 15 250 50 0 empty empty empty 17 7 0 10 -262144
-1 -1;
#X obj 1237 645 f;
#X obj 1267 644 + 1;
#X obj 1237 667 mod 2;
#X floatatom 1282 666 5 0 0 0 - - -, f 5;
#X msg 1237 716 0;
#X obj 43 98 noise~;
#X obj 952 679 dac~;
#X obj 105 75 bng 15 250 50 0 empty empty empty 17 7 0 10 -262144 -1
-1;
#X obj 105 116 line 0 1;
#X text 132 73 Radio 잡음;
#X floatatom 105 137 5 0 0 0 - - -, f 5;
#X msg 105 95 0.8 \, 0 5000;
#X obj 211 95 inlet;
#X msg 211 120 0;
#X text 211 74 소리 멈춤, f 10;
#X obj 44 135 *~ 0;
#X connect 0 0 111 0;
#X connect 1 0 83 0;
#X connect 1 0 84 0;
#X connect 1 0 85 0;
#X connect 1 0 86 0;
#X connect 1 0 87 0;
#X connect 1 0 88 0;
#X connect 1 0 89 0;
#X connect 1 0 90 0;
#X connect 1 0 91 0;
#X connect 1 0 92 0;
#X connect 2 0 7 0;
#X connect 3 0 4 0;
#X connect 4 0 83 1;
#X connect 5 0 6 0;
#X connect 6 0 2 0;
#X connect 7 0 8 0;
#X connect 8 0 9 1;
#X connect 9 0 95 0;
#X connect 10 0 13 0;
#X connect 11 0 84 1;
#X connect 12 0 93 0;
#X connect 13 0 14 0;
#X connect 14 0 15 1;
#X connect 15 0 95 0;
#X connect 16 0 19 0;
#X connect 17 0 85 1;
#X connect 18 0 71 0;
#X connect 19 0 20 0;
#X connect 20 0 21 1;
#X connect 21 0 95 0;
#X connect 22 0 25 0;
#X connect 23 0 86 1;
#X connect 24 0 72 0;
#X connect 25 0 26 0;
#X connect 26 0 27 1;
#X connect 27 0 95 0;
#X connect 28 0 31 0;
#X connect 29 0 87 1;
#X connect 30 0 73 0;
#X connect 31 0 32 0;
#X connect 32 0 33 1;
#X connect 33 0 95 0;
#X connect 34 0 37 0;
#X connect 35 0 88 1;
#X connect 36 0 74 0;
#X connect 37 0 38 0;
#X connect 38 0 39 1;
#X connect 39 0 95 0;
#X connect 40 0 43 0;
#X connect 41 0 89 1;
#X connect 42 0 75 0;
#X connect 43 0 44 0;
#X connect 44 0 45 1;
#X connect 45 0 95 0;
#X connect 46 0 48 0;
#X connect 47 0 94 0;
#X connect 48 0 49 0;
#X connect 49 0 50 1;
#X connect 50 0 95 0;
#X connect 51 0 54 0;
#X connect 52 0 91 1;
#X connect 53 0 76 0;
#X connect 54 0 55 0;
#X connect 55 0 56 1;
#X connect 56 0 95 0;
#X connect 57 0 59 0;
#X connect 58 0 92 1;
#X connect 59 0 60 0;
#X connect 60 0 61 1;
#X connect 61 0 95 0;
#X connect 62 0 11 0;
#X connect 63 0 17 0;
#X connect 64 0 23 0;
#X connect 65 0 29 0;
#X connect 66 0 35 0;
#X connect 67 0 41 0;
#X connect 68 0 79 0;
#X connect 69 0 52 0;
#X connect 70 0 58 0;
#X connect 71 0 16 0;
#X connect 72 0 22 0;
#X connect 73 0 28 0;
#X connect 74 0 34 0;
#X connect 75 0 40 0;
#X connect 76 0 51 0;
#X connect 77 0 57 0;
#X connect 79 0 90 1;
#X connect 80 0 77 0;
#X connect 81 0 65 0;
#X connect 81 0 70 0;
#X connect 81 0 69 0;
#X connect 81 0 68 0;
#X connect 81 0 67 0;
#X connect 81 0 66 0;
#X connect 81 0 64 0;
#X connect 81 0 63 0;
#X connect 81 0 62 0;
#X connect 81 0 3 0;
#X connect 82 0 83 2;
#X connect 82 0 84 2;
#X connect 82 0 85 2;
#X connect 82 0 86 2;
#X connect 82 0 87 2;
#X connect 82 0 88 2;
#X connect 82 0 89 2;
#X connect 82 0 90 2;
#X connect 82 0 91 2;
#X connect 82 0 92 2;
#X connect 83 0 9 0;
#X connect 84 0 15 0;
#X connect 85 0 21 0;
#X connect 86 0 27 0;
#X connect 87 0 33 0;
#X connect 88 0 39 0;
#X connect 89 0 45 0;
#X connect 90 0 50 0;
#X connect 91 0 56 0;
#X connect 92 0 61 0;
#X connect 93 0 10 0;
#X connect 94 0 46 0;
#X connect 96 0 81 0;
#X connect 97 0 82 0;
#X connect 98 0 96 0;
#X connect 98 0 97 0;
#X connect 99 0 95 1;
#X connect 99 0 104 0;
#X connect 100 0 95 1;
#X connect 101 0 99 0;
#X connect 102 0 108 0;
#X connect 102 1 100 0;
#X connect 103 0 104 0;
#X connect 104 0 105 0;
#X connect 104 0 106 0;
#X connect 105 0 104 1;
#X connect 106 0 102 0;
#X connect 106 0 107 0;
#X connect 108 0 95 1;
#X connect 109 0 119 0;
#X connect 111 0 115 0;
#X connect 112 0 114 0;
#X connect 112 0 119 1;
#X connect 115 0 112 0;
#X connect 116 0 117 0;
#X connect 117 0 112 0;
#X connect 117 0 119 1;
#X connect 119 0 78 0;
#X connect 119 0 78 1;
#X restore 777 316 pd noise;
#X floatatom 88 394 5 0 0 0 - - -, f 5;
#X obj 777 298 bng 15 250 50 0 empty empty empty 17 7 0 10 -262144
-1 -1;
#X obj 55 580 hradio 15 1 0 9 empty empty empty 0 -8 0 10 -262144 -1
-1 2;
#X floatatom 142 418 5 0 0 0 - - -, f 5;
#X msg 109 417 \$1;
#X obj 55 600 sel 0 1 2 3 4 5 6 7 8, f 24;
#X text 212 580 7: 노이즈 8: 라디오 켰을때 나머지는 노래
순서대로, f 43;
#X obj 190 708 output~;
#X obj 190 687 tabplay~ m1;
#X obj 190 627 t b b;
#X msg 240 657 stop;
#X obj 237 626 s start_noise;
#X obj 777 275 r start_noise;
#X msg 190 657 443000;
#X obj 164 623 bng 15 250 50 0 empty empty empty 17 7 0 10 -262144
-1 -1;
#X obj 822 295 r tri_stop;
#X obj 112 536 s tri_stop;
#X obj 112 514 bng 15 250 50 0 empty empty empty 17 7 0 10 -262144
-1 -1;
#X obj 112 492 sel 0;
#X obj 281 657 r tri_stop;
#X obj 88 373 pipe 5000;
#X obj 845 319 bng 15 250 50 0 empty empty empty 17 7 0 10 -262144
-1 -1;
#X obj 55 556 mod 9;
#X msg 128 809 1;
#X obj 444 475 hradio 15 1 0 10 empty empty empty 0 -8 0 10 -262144
-1 -1 0;
#X obj 569 605 output~;
#X obj 569 584 tabplay~ m1;
#X obj 569 524 t b b;
#X msg 619 554 stop;
#X obj 616 523 s start_noise;
#X obj 542 522 bng 15 250 50 0 empty empty empty 17 7 0 10 -262144
-1 -1;
#X obj 660 554 r tri_stop;
#X obj 375 340 comport 3 9600;
#X msg 375 313 open 3;
#X msg 436 315 close 3;
#X floatatom 444 389 5 0 0 0 - - -, f 5;
#X obj 375 288 loadbang;
#X msg 35 44 create \, 1;
#X msg 172 31 dimen 800 600;
#X obj 444 453 mod 10;
#X text 602 465 7: 노이즈 8: 라디오 켰을때 나머지는 노래
순서대로 0: 아무것도 아닌 상태(시작시 멈춤 control)
, f 47;
#X obj 444 411 change;
#X obj 509 429 s start_noise;
#X obj 444 431 pipe 5000;
#X floatatom 489 454 5 0 0 0 - - -, f 5;
#X msg 569 554 445000;
#X obj 375 369 sel 8 9;
#X floatatom 468 341 5 0 0 0 - - -, f 5;
#X msg 346 394 8;
#X msg 394 393 9;
#X obj 444 495 sel 0 1 2 3 4 5 6 7 8 9, f 24;
#X obj 603 497 s tri_stop;
#X obj 375 414 delay 100;
#X msg 375 437 0;
#X obj 670 190 clone 20 mult_floors;
#N canvas -9 -9 1920 976 parti 0;
#X obj 55 519 part_color;
#X obj 55 588 part_draw;
#X obj 55 108 gemhead 49;
#X obj 55 440 part_gravity 0 -0.02 0;
#X msg 112 486 0.145 0.184 0.569;
#X obj 126 515 loadbang;
#X msg 72 557 draw line;
#X obj 55 377 part_velocity sphere 0 0.1 0 0.3;
#X msg 83 464 0.541 0.451 0.859;
#X obj 113 218 tgl 15 0 empty empty empty 17 7 0 10 -262144 -1 -1 0
1;
#X obj 113 238 metro 3500;
#X obj 113 283 bng 15 250 50 0 empty empty empty 17 7 0 10 -262144
-1 -1;
#X obj 185 283 bng 15 250 50 0 empty empty empty 17 7 0 10 -262144
-1 -1;
#X obj 55 355 part_head 450;
#X msg 113 303 speed 0.7;
#X msg 185 303 speed 0.3;
#X obj 55 397 part_source 10;
#X obj 55 418 part_killold 50;
#X obj 205 283 loadbang;
#X obj 185 263 delay 1450;
#X obj 55 62 loadbang;
#X obj 55 86 tgl 15 0 empty empty empty 17 7 0 10 -262144 -1 -1 1 1
;
#X text 256 408 upDown;
#X msg 184 404 0 -0.02 0;
#X obj 256 431 sel 82;
#X msg 256 459 0 0.8 0;
#X obj 362 260 bng 15 250 50 0 empty empty empty 17 7 0 10 -262144
-1 -1;
#X obj 55 262 rotateXYZ;
#X obj 55 129 translateXYZ -0.2 15 -3;
#X connect 0 0 1 0;
#X connect 2 0 28 0;
#X connect 3 0 0 0;
#X connect 4 0 0 2;
#X connect 5 0 8 0;
#X connect 5 0 4 0;
#X connect 5 0 6 0;
#X connect 6 0 1 0;
#X connect 7 0 16 0;
#X connect 8 0 0 1;
#X connect 9 0 10 0;
#X connect 10 0 11 0;
#X connect 10 0 19 0;
#X connect 11 0 14 0;
#X connect 12 0 15 0;
#X connect 13 0 7 0;
#X connect 14 0 13 0;
#X connect 15 0 13 0;
#X connect 16 0 17 0;
#X connect 17 0 3 0;
#X connect 18 0 15 0;
#X connect 18 0 23 0;
#X connect 19 0 12 0;
#X connect 20 0 21 0;
#X connect 21 0 2 0;
#X connect 23 0 3 1;
#X connect 24 0 25 0;
#X connect 25 0 3 1;
#X connect 26 0 23 0;
#X connect 27 0 13 0;
#X connect 28 0 27 0;
#X restore 704 85 pd parti;
#N canvas 0 50 450 250 (subpatch) 0;
#X array m1 2.84083e+006 float 2;
#X coords 0 1 2.84083e+006 -1 200 140 1;
#X restore 1063 145 graph;
#X obj 1071 355 soundfiler;
#X obj 1071 308 loadbang;
#X msg 1071 332 read -resize Sleepless.wav m1;
#X connect 1 0 9 0;
#X connect 4 0 3 0;
#X connect 5 0 6 0;
#X connect 5 1 7 0;
#X connect 5 2 8 0;
#X connect 9 0 2 0;
#X connect 10 0 11 0;
#X connect 11 0 14 0;
#X connect 11 0 25 0;
#X connect 11 0 46 0;
#X connect 11 0 45 0;
#X connect 11 0 44 0;
#X connect 11 0 37 0;
#X connect 11 0 34 0;
#X connect 11 0 33 0;
#X connect 11 0 32 0;
#X connect 11 0 47 0;
#X connect 11 0 48 0;
#X connect 11 0 49 0;
#X connect 11 0 88 0;
#X connect 11 0 88 1;
#X connect 12 0 13 0;
#X connect 13 0 59 0;
#X connect 14 0 12 0;
#X connect 16 0 11 0;
#X connect 17 0 18 0;
#X connect 18 0 55 0;
#X connect 19 0 20 0;
#X connect 20 0 56 0;
#X connect 21 0 22 0;
#X connect 22 0 57 0;
#X connect 23 0 24 0;
#X connect 24 0 58 0;
#X connect 25 0 23 0;
#X connect 26 0 27 0;
#X connect 27 0 60 0;
#X connect 28 0 29 0;
#X connect 29 0 61 0;
#X connect 30 0 31 0;
#X connect 31 0 62 0;
#X connect 32 0 26 0;
#X connect 33 0 28 0;
#X connect 34 0 30 0;
#X connect 35 0 36 0;
#X connect 36 0 63 0;
#X connect 37 0 35 0;
#X connect 38 0 39 0;
#X connect 39 0 64 0;
#X connect 40 0 41 0;
#X connect 41 0 65 0;
#X connect 42 0 43 0;
#X connect 43 0 66 0;
#X connect 44 0 38 0;
#X connect 45 0 40 0;
#X connect 46 0 42 0;
#X connect 47 0 21 0;
#X connect 48 0 19 0;
#X connect 49 0 17 0;
#X connect 52 0 55 1;
#X connect 53 0 56 1;
#X connect 54 0 52 0;
#X connect 54 0 75 0;
#X connect 54 0 74 0;
#X connect 54 0 73 0;
#X connect 54 0 72 0;
#X connect 54 0 71 0;
#X connect 54 0 70 0;
#X connect 54 0 69 0;
#X connect 54 0 68 0;
#X connect 54 0 67 0;
#X connect 54 0 53 0;
#X connect 67 0 58 1;
#X connect 68 0 59 1;
#X connect 69 0 60 1;
#X connect 70 0 61 1;
#X connect 71 0 62 1;
#X connect 72 0 63 1;
#X connect 73 0 64 1;
#X connect 74 0 65 1;
#X connect 75 0 66 1;
#X connect 77 0 11 0;
#X connect 78 0 11 0;
#X connect 79 0 11 0;
#X connect 80 0 11 0;
#X connect 81 0 11 0;
#X connect 82 0 11 0;
#X connect 83 0 3 0;
#X connect 84 0 83 0;
#X connect 85 0 15 0;
#X connect 91 0 93 0;
#X connect 91 0 103 0;
#X connect 93 0 95 0;
#X connect 94 0 93 1;
#X connect 95 0 121 0;
#X connect 96 0 97 0;
#X connect 97 0 94 0;
#X connect 99 0 96 0;
#X connect 100 0 98 0;
#X connect 101 0 104 0;
#X connect 103 0 102 0;
#X connect 103 0 96 1;
#X connect 104 7 113 0;
#X connect 104 8 108 0;
#X connect 107 0 106 0;
#X connect 107 0 106 1;
#X connect 108 0 112 0;
#X connect 108 1 110 0;
#X connect 109 0 107 0;
#X connect 111 0 100 0;
#X connect 112 0 107 0;
#X connect 113 0 110 0;
#X connect 114 0 98 1;
#X connect 114 0 120 0;
#X connect 116 0 115 0;
#X connect 117 0 116 0;
#X connect 118 0 109 0;
#X connect 118 0 16 0;
#X connect 119 0 99 0;
#X connect 121 0 101 0;
#X connect 122 0 11 0;
#X connect 123 0 149 0;
#X connect 125 0 124 0;
#X connect 125 0 124 1;
#X connect 126 0 144 0;
#X connect 126 1 128 0;
#X connect 127 0 125 0;
#X connect 129 0 128 0;
#X connect 130 0 127 0;
#X connect 131 0 145 0;
#X connect 131 0 146 0;
#X connect 132 0 131 0;
#X connect 133 0 131 0;
#X connect 134 0 140 0;
#X connect 136 0 3 0;
#X connect 137 0 3 0;
#X connect 138 0 123 0;
#X connect 140 0 141 0;
#X connect 140 0 142 0;
#X connect 142 0 138 0;
#X connect 142 0 143 0;
#X connect 144 0 125 0;
#X connect 145 0 147 0;
#X connect 145 0 151 0;
#X connect 145 1 148 0;
#X connect 145 2 134 0;
#X connect 147 0 123 0;
#X connect 148 0 123 0;
#X connect 149 1 127 0;
#X connect 149 2 127 0;
#X connect 149 3 127 0;
#X connect 149 4 127 0;
#X connect 149 5 127 0;
#X connect 149 6 127 0;
#X connect 149 7 129 0;
#X connect 149 8 126 0;
#X connect 149 9 150 0;
#X connect 151 0 152 0;
#X connect 152 0 123 0;
#X connect 157 0 158 0;
#X connect 158 0 156 0;
