#N canvas 267 41 704 781 10;
#N canvas 0 50 450 250 (subpatch) 0;
#X array music 4e+006 float 2;
#X coords 0 1 4e+006 -1 200 140 1;
#X restore 1522 504 graph;
#X obj 1527 663 loadbang;
#X obj 1527 705 soundfiler;
#X obj 33 148 gemwin;
#X msg 80 112 0 \, destroy;
#X msg 1527 684 read -resize m.wav music;
#X obj 169 1079 readsf~;
#X obj 389 1228 env~ 16384;
#X floatatom 389 1249 5 0 0 0 - - -, f 5;
#X obj 389 1206 bp~ 150 10;
#X msg 1303 45 \; pd dsp 1 \;;
#X obj 103 1232 env~ 16384;
#X floatatom 103 1253 5 0 0 0 - - -, f 5;
#X obj 204 1230 env~ 16384;
#X floatatom 204 1251 5 0 0 0 - - -, f 5;
#X obj 26 1230 env~ 16384;
#X floatatom 26 1251 5 0 0 0 - - -, f 5;
#X obj 299 1229 env~ 16384;
#X floatatom 299 1250 5 0 0 0 - - -, f 5;
#X obj 299 1207 bp~ 130 10;
#X obj 483 1228 env~ 16384;
#X floatatom 483 1249 5 0 0 0 - - -, f 5;
#X obj 580 1229 env~ 16384;
#X floatatom 580 1250 5 0 0 0 - - -, f 5;
#X obj 690 1228 env~ 16384;
#X floatatom 690 1249 5 0 0 0 - - -, f 5;
#X obj 483 1206 bp~ 240 10;
#X obj 580 1207 bp~ 480 10;
#X obj 690 1205 bp~ 950 10;
#X obj 781 1228 env~ 16384;
#X floatatom 781 1248 5 0 0 0 - - -, f 5;
#X obj 781 1205 bp~ 1800 10;
#X obj 875 1226 env~ 16384;
#X floatatom 875 1247 5 0 0 0 - - -, f 5;
#X obj 975 1226 env~ 16384;
#X floatatom 975 1247 5 0 0 0 - - -, f 5;
#X obj 1062 1226 env~ 16384;
#X floatatom 1062 1247 5 0 0 0 - - -, f 5;
#X obj 875 1202 bp~ 3700 10;
#X obj 975 1203 bp~ 7400 10;
#X obj 1062 1202 hip~ 14000;
#X obj 26 1208 lop~ 20;
#X obj 204 1208 bp~ 70 10;
#X obj 103 1209 bp~ 30 10;
#N canvas 0 50 450 250 (subpatch) 0;
#X array h 27 float 3;
#A 0 78.3763 64.2669 89.6201 81.5387 81.2143 77.9925 78.9026 80.0141
80.1819 79.2322 79.2065 69.4971 76.0491 70.9553 0 0 0 73.6392 0 0 57.0634
47.9662 76.5999 80.5895 80.5717 77.7144 68.0073;
#X coords 0 90 27 0 200 140 1 0 0;
#X restore 424 953 graph;
#X msg 160 1298 1;
#X msg 261 1308 2;
#X obj 1119 1290 loadbang;
#X obj 103 1330 tabwrite h;
#X obj 204 1329 tabwrite h;
#X obj 26 1328 tabwrite h;
#X obj 299 1331 tabwrite h;
#X obj 389 1332 tabwrite h;
#X obj 483 1335 tabwrite h;
#X obj 581 1340 tabwrite h;
#X obj 690 1337 tabwrite h;
#X obj 781 1340 tabwrite h;
#X obj 875 1340 tabwrite h;
#X obj 975 1340 tabwrite h;
#X obj 1062 1343 tabwrite h;
#X msg 360 1307 3;
#X msg 446 1307 4;
#X msg 540 1313 5;
#X msg 637 1314 6;
#X msg 747 1315 7;
#X msg 838 1319 8;
#X msg 932 1317 9, f 2;
#X msg 1032 1318 10;
#X msg 1119 1321 11;
#X msg 424 890 \; h resize 27 \; h bounds 0 90 27 0 \;;
#X msg 182 784 open alchol.wav;
#X msg 168 728 open In-Seoul.wav;
#N canvas 478 111 783 604 musics 0;
#X obj 16 15 loadbang;
#X obj 16 58 soundfiler;
#X msg 16 37 read -resize Sleepless.wav m1;
#N canvas 0 50 450 250 (subpatch) 0;
#X array m1 2.84083e+006 float 2;
#X coords 0 1 2.84083e+006 -1 200 140 1;
#X restore 264 19 graph;
#X connect 0 0 2 0;
#X connect 2 0 1 0;
#X restore 199 300 pd musics;
#X obj 1303 25 loadbang;
#X obj 33 45 loadbang;
#X obj 351 1039 output~;
#N canvas 730 117 426 215 noise 0;
#X obj 105 42 inlet;
#X obj 45 165 dac~;
#X obj 43 98 noise~;
#X obj 105 75 bng 15 250 50 0 empty empty empty 17 7 0 10 -262144 -1
-1;
#X obj 105 116 line 0 1;
#X text 103 11 Radio 잡음;
#X floatatom 105 137 5 0 0 0 - - -, f 5;
#X obj 211 95 inlet;
#X msg 211 120 0;
#X text 211 74 소리 멈춤, f 10;
#X obj 44 135 *~ 0;
#X msg 105 95 0.6 \, 0 5000;
#X connect 0 0 3 0;
#X connect 2 0 10 0;
#X connect 3 0 11 0;
#X connect 4 0 6 0;
#X connect 4 0 10 1;
#X connect 7 0 8 0;
#X connect 8 0 4 0;
#X connect 8 0 10 1;
#X connect 10 0 1 0;
#X connect 10 0 1 1;
#X connect 11 0 4 0;
#X restore 330 656 pd noise;
#X obj 330 638 bng 15 250 50 0 empty empty empty 17 7 0 10 -262144
-1 -1;
#X obj 330 615 r start_noise;
#X obj 375 635 r tri_stop;
#X obj 398 659 bng 15 250 50 0 empty empty empty 17 7 0 10 -262144
-1 -1;
#X msg 211 1041 1;
#X obj 127 473 hradio 15 1 0 10 empty empty empty 0 -8 0 10 -262144
-1 -1 4;
#X obj 252 617 output~;
#X obj 252 582 tabplay~ m1;
#X obj 252 522 t b b;
#X obj 299 521 s start_noise;
#X obj 225 520 bng 15 250 50 0 empty empty empty 17 7 0 10 -262144
-1 -1;
#X floatatom 127 377 5 0 0 0 - - -, f 5;
#X obj 58 276 loadbang;
#X obj 127 451 mod 10;
#X obj 127 399 change;
#X obj 216 422 s start_noise;
#X obj 127 429 pipe 5000;
#X floatatom 88 451 5 0 0 0 - - -, f 5;
#X msg 252 552 445000;
#X obj 58 357 sel 8 9;
#X floatatom 151 329 5 0 0 0 - - -, f 5;
#X msg 29 382 8;
#X msg 77 381 9;
#X obj 127 493 sel 0 1 2 3 4 5 6 7 8 9, f 24;
#X obj 281 494 s tri_stop;
#X obj 58 402 delay 100;
#X msg 58 425 0;
#X msg 103 1278 \$1 500;
#X obj 103 1305 line 0 1;
#X msg 332 583 1;
#X msg 26 1274 \$1 500;
#X obj 26 1301 line 0 1;
#X msg 204 1277 \$1 500;
#X obj 204 1304 line 0 1;
#X msg 299 1281 \$1 500;
#X obj 299 1308 line 0 1;
#X msg 389 1281 \$1 500;
#X obj 389 1308 line 0 1;
#X msg 483 1284 \$1 500;
#X obj 483 1311 line 0 1;
#X msg 580 1282 \$1 500;
#X obj 580 1309 line 0 1;
#X msg 690 1283 \$1 500;
#X obj 690 1310 line 0 1;
#X msg 781 1287 \$1 500;
#X obj 781 1314 line 0 1;
#X msg 875 1288 \$1 500;
#X obj 875 1315 line 0 1;
#X msg 975 1287 \$1 500;
#X obj 975 1314 line 0 1;
#X msg 1062 1289 \$1 500;
#X obj 1062 1316 line 0 1;
#X obj 216 399 s music_stop;
#X obj 141 698 t b b;
#X obj 342 551 r music_stop;
#X msg 306 551 stop;
#X obj 155 760 t b b;
#X obj 169 810 t b b;
#X msg 196 834 open dawn.wav;
#X obj 183 861 t b b;
#X obj 243 1040 r music_stop;
#X msg 243 1067 0;
#X obj 197 914 t b b;
#X msg 210 885 open No-Different.wav;
#X msg 224 938 open rain.wav;
#X obj 211 965 t b b;
#X msg 238 989 open Lullaby-For-A-Cat.wav;
#X obj 281 473 s music_stop;
#X text 331 414 7: 노이즈 8: 라디오 켰을때 나머지는 노래
순서대로 0: 아무것도 아닌 상태(시작시 멈춤 control)
9:off, f 47;
#X text 327 678 라디오 노이즈 재생;
#X obj 49 517 s arduinoNum;
#X obj 33 244 cnv 15 100 25 empty empty Control 20 12 0 14 -262130
-66577 0;
#N canvas 196 104 627 609 parti 1;
#X obj 1097 1234 part_color;
#X obj 1097 1303 part_draw;
#X obj 1097 892 gemhead 49;
#X obj 1097 1155 part_gravity 0 -0.02 0;
#X obj 1168 1230 loadbang;
#X msg 1114 1272 draw line;
#X obj 1156 948 tgl 15 0 empty empty empty 17 7 0 10 -262144 -1 -1
0 1;
#X obj 1156 968 metro 3500;
#X obj 1156 1013 bng 15 250 50 0 empty empty empty 17 7 0 10 -262144
-1 -1;
#X obj 1228 1013 bng 15 250 50 0 empty empty empty 17 7 0 10 -262144
-1 -1;
#X obj 1097 1070 part_head 450;
#X msg 1156 1033 speed 0.7;
#X msg 1228 1033 speed 0.3;
#X obj 1097 1112 part_source 10;
#X obj 1097 1133 part_killold 50;
#X obj 1248 1013 loadbang;
#X obj 1228 993 delay 1450;
#X obj 1097 870 tgl 15 0 empty empty empty 17 7 0 10 -262144 -1 -1
0 1;
#X msg 1226 1119 0 -0.02 0;
#X obj 1097 977 rotateXYZ;
#X obj 1097 914 translateXYZ -0.2 15 -3;
#X msg 1153 1201 0.145 0.5 0.75;
#X obj 159 15 r arduinoNum;
#X obj 1097 841 t b b;
#X obj 1097 814 loadbang;
#X obj 1156 735 t b b;
#X floatatom 159 38 5 0 0 0 - - -, f 5;
#X obj 159 117 sel 1 2 3 4 5 6;
#X obj 159 62 change;
#X obj 1097 1092 part_velocity sphere 0 0.1 0 0.5;
#X msg 686 52 0.145 0.184 0.569;
#X msg 657 30 0.541 0.451 0.859;
#X obj 440 1183 part_color;
#X obj 440 861 gemhead 49;
#X obj 514 1180 loadbang;
#X obj 455 989 loadbang;
#X obj 440 835 tgl 15 0 empty empty empty 17 7 0 10 -262144 -1 -1 1
1;
#X msg 468 1128 0.8 0.769 0.384;
#X msg 497 1150 0.953 0.325 0.616;
#X obj 440 1039 part_head;
#X obj 582 950 line 0 1;
#X msg 558 808 stop;
#X obj 1159 813 r parti_stop;
#X msg 1159 836 0;
#X obj 202 85 s parti_stop;
#X obj 525 784 r parti_stop;
#X msg 525 807 0;
#X obj 159 85 t a a;
#X obj 534 1282 part_render;
#X obj 440 1283 part_draw;
#X obj 440 963 rotateXYZ 0 0 0;
#X msg 456 1014 speed 0.15;
#X obj 495 1219 loadbang;
#X msg 495 1242 draw point;
#X obj 440 891 separator;
#X obj 702 889 separator;
#X text 1193 838 stop;
#X text 594 806 stop;
#X obj 703 1197 part_color;
#X obj 777 1194 loadbang;
#X obj 717 987 loadbang;
#X msg 731 1142 0.8 0.769 0.384;
#X obj 702 1037 part_head;
#X obj 844 948 line 0 1;
#X obj 703 1297 part_draw;
#X obj 702 961 rotateXYZ 0 0 0;
#X obj 758 1233 loadbang;
#X msg 758 1256 draw point;
#X obj 702 1060 part_velocity sphere 0 0.1 0 0.5;
#X msg 759 1163 0.8 0.7 0.95;
#X obj 582 859 metro 30000;
#X msg 583 929 0 \, 360 30000;
#X obj 439 1106 part_killold 60;
#X msg 844 925 0 \, 360 30000;
#X obj 534 1307 ortho;
#X obj 534 1335 circle 0.02;
#X obj 440 1061 part_velocity sphere 0 0 0 0.3;
#X obj 440 929 translateXYZ -2.5 -2 -1;
#X obj 840 1246 part_render;
#X obj 840 1271 ortho;
#X obj 840 1298 circle 0.01;
#X msg 717 1011 speed 0.3;
#X obj 454 361 gemhead;
#X msg 385 517 draw line;
#X obj 385 492 loadbang;
#X obj 455 562 cuboid 3 2 1, f 16;
#X obj 601 401 tabread h;
#X floatatom 601 447 5 0 0 0 - - -, f 5;
#X floatatom 601 378 5 0 0 0 - - -, f 5;
#X obj 601 492 line 0 1;
#X obj 601 327 tgl 15 0 empty empty empty 17 7 0 10 -262144 -1 -1 0
1;
#X obj 601 351 metro 100;
#X msg 601 469 \$1 500;
#X obj 601 425 mod 8;
#X obj 676 403 tabread h;
#X floatatom 676 449 5 0 0 0 - - -, f 5;
#X floatatom 676 380 5 0 0 0 - - -, f 5;
#X obj 676 494 line 0 1;
#X msg 676 471 \$1 500;
#X msg 657 331 1;
#X msg 692 331 11;
#X obj 676 427 mod 4;
#X obj 454 384 translateXYZ 0 0 -3;
#X obj 755 404 tabread h;
#X floatatom 755 450 5 0 0 0 - - -, f 5;
#X floatatom 755 381 5 0 0 0 - - -, f 5;
#X obj 756 495 line 0 1;
#X msg 755 472 \$1 500;
#X obj 755 428 mod 4;
#X msg 728 332 6;
#X obj 455 517 alpha;
#X obj 657 300 loadbang;
#X obj 454 335 tgl 15 0 empty empty empty 17 7 0 10 -262144 -1 -1 0
1;
#X obj 455 779 loadbang;
#X obj 455 800 t b b;
#X obj 455 779 loadbang;
#X obj 455 800 t b b;
#X obj 455 779 loadbang;
#X obj 455 800 t b b;
#X obj 454 285 loadbang;
#X obj 454 306 t b b;
#X obj 454 285 loadbang;
#X obj 454 306 t b b;
#X obj 454 285 loadbang;
#X obj 454 306 t b b;
#X obj 513 284 r parti_stop;
#X msg 513 307 0;
#X msg 397 541 width 3;
#X obj 756 518 * 0.3;
#X obj 601 516 * 0.25;
#X obj 454 478 colorRGB 0.2784 0.5 0.6827, f 16;
#X obj 829 553 part_color;
#X obj 903 550 loadbang;
#X obj 844 347 loadbang;
#X obj 829 397 part_head;
#X obj 971 308 line 0 1;
#X obj 829 653 part_draw;
#X obj 829 321 rotateXYZ 0 0 0;
#X obj 884 589 loadbang;
#X msg 884 612 draw point;
#X msg 885 519 0.8 0.7 0.95;
#X msg 971 285 0 \, 360 30000;
#X obj 829 441 part_source 800;
#X obj 829 468 part_killold 50;
#X msg 857 497 0.9 0.9 1;
#X obj 829 288 translateXYZ 0 0 -4;
#X obj 829 419 part_velocity sphere 0 0 0.1 1;
#X msg 844 370 speed 0.2;
#X obj 451 250 cnv 15 100 25 empty empty music_3 20 12 0 14 -262130
-66577 0;
#X obj 1094 780 cnv 15 100 25 empty empty music_6 20 12 0 14 -262130
-66577 0;
#X obj 441 743 cnv 15 100 25 empty empty music_4 20 12 0 14 -262130
-66577 0;
#X obj 1106 276 cnv 15 100 25 empty empty music_5 20 12 0 14 -262130
-66577 0;
#X obj 1151 347 tgl 15 0 empty empty empty 17 7 0 10 -262144 -1 -1
0 1;
#X obj 1178 579 pqtorusknots;
#X msg 1272 535 pq \$1 5;
#X floatatom 1362 562 5 0 0 0 - - -, f 5;
#X obj 1107 346 t b b;
#X obj 1099 312 loadbang;
#X text 1204 348 star;
#X obj 1362 437 tabread h;
#X floatatom 1362 411 5 0 0 0 - - -, f 5;
#X obj 1362 514 line 0 1;
#X obj 1176 321 r parti_stop;
#X msg 1176 344 0;
#X obj 1362 463 mod 15;
#X msg 1256 480 clump \$1 0.5 1;
#X msg 1361 490 \$1 2000;
#X obj 1362 362 metro 2050;
#X text 287 81 노래가 바뀌면 particle 멈추기, f 29;
#X obj 54 606 part_color;
#X obj 54 349 gemhead 49;
#X obj 126 594 loadbang;
#X obj 90 402 loadbang;
#X obj 52 275 loadbang;
#X obj 54 318 tgl 15 0 empty empty empty 17 7 0 10 -262144 -1 -1 0
1;
#X obj 54 666 part_gravity 0 0 0;
#X msg 82 551 0.8 0.769 0.384;
#X msg 111 573 0.953 0.325 0.616;
#X obj 54 462 part_head;
#X obj 54 506 part_source 500;
#X obj 54 636 part_orbitpoint 0 0 0 0.8;
#X obj 272 608 delay 500;
#X msg 272 629 0;
#X obj 55 751 part_draw;
#X msg 236 607 0.8;
#X obj 54 484 part_velocity sphere 0 0.3 1 1;
#X obj 236 573 metro 800;
#X obj 115 290 r parti_stop;
#X msg 115 313 0;
#X msg 79 710 draw line;
#X obj 54 372 translateXYZ 0 0 -10;
#X msg 89 425 speed 0.3;
#X obj 54 530 part_killold 100;
#X obj 49 243 cnv 15 100 25 empty empty music_1 20 12 0 14 -262130
-66577 0;
#X obj 702 928 translateXYZ 3.2 1 1;
#X text 1220 1179 0.5 0.4 0.8;
#X msg 1126 1178 0.9 0.9 0.95;
#X msg 1090 518 draw point;
#X msg 1362 387 11;
#X msg 1063 568 draw line;
#X msg 1217 393 scale 10;
#X msg 1233 421 steps 250;
#X msg 1259 506 thick 0.8, f 11;
#X obj 1152 633 translateXYZ 0 0 -15;
#X obj 1151 367 gemhead 1;
#X msg 1246 449 facets 20;
#X obj 66 996 gemhead 55;
#X obj 66 1017 translateXYZ 0 0 -3;
#X obj 66 1084 world_light;
#X floatatom 273 1094 5 0 0 0 - - -, f 5;
#X obj 66 1058 rotateXYZ 0 0 0;
#X msg 140 1085 0.9 0.9 0.9176;
#X obj 272 968 tgl 15 0 empty empty empty 17 7 0 10 -262144 -1 -1 0
1;
#X obj 273 1071 line 0 1;
#X obj 273 993 metro 100;
#X obj 273 1016 f;
#X obj 304 1016 + 3;
#X msg 273 1045 \$1 500;
#X obj 333 1018 mod 360;
#X obj 64 906 loadbang;
#X obj 65 950 tgl 15 0 empty empty empty 17 7 0 10 -262144 -1 -1 0
1;
#X obj 127 921 r parti_stop;
#X msg 127 944 0;
#X obj 24 979 s l;
#X obj 52 296 t b b;
#X obj 64 927 t b b;
#X obj 702 1081 part_source 50;
#X obj 440 1083 part_source 400;
#X obj 702 1108 part_killold 400;
#X connect 0 0 1 0;
#X connect 2 0 20 0;
#X connect 3 0 0 0;
#X connect 4 0 196 0;
#X connect 4 0 21 0;
#X connect 4 0 5 0;
#X connect 5 0 1 0;
#X connect 6 0 7 0;
#X connect 7 0 8 0;
#X connect 7 0 16 0;
#X connect 8 0 11 0;
#X connect 9 0 12 0;
#X connect 10 0 29 0;
#X connect 11 0 10 0;
#X connect 12 0 10 0;
#X connect 13 0 14 0;
#X connect 14 0 3 0;
#X connect 15 0 12 0;
#X connect 15 0 18 0;
#X connect 16 0 9 0;
#X connect 17 0 2 0;
#X connect 18 0 3 1;
#X connect 19 0 10 0;
#X connect 20 0 19 0;
#X connect 21 0 0 2;
#X connect 22 0 26 0;
#X connect 23 0 17 0;
#X connect 23 1 17 0;
#X connect 24 0 23 0;
#X connect 25 0 6 0;
#X connect 25 1 17 0;
#X connect 26 0 28 0;
#X connect 27 0 174 0;
#X connect 27 1 220 0;
#X connect 27 1 212 0;
#X connect 27 2 112 0;
#X connect 27 2 90 0;
#X connect 27 3 36 0;
#X connect 27 4 152 0;
#X connect 27 5 25 0;
#X connect 28 0 47 0;
#X connect 29 0 13 0;
#X connect 32 0 49 0;
#X connect 32 0 48 0;
#X connect 33 0 54 0;
#X connect 33 0 55 0;
#X connect 34 0 37 0;
#X connect 34 0 38 0;
#X connect 35 0 51 0;
#X connect 36 0 33 0;
#X connect 36 0 70 0;
#X connect 37 0 32 1;
#X connect 38 0 32 2;
#X connect 39 0 76 0;
#X connect 40 0 50 2;
#X connect 41 0 40 0;
#X connect 42 0 43 0;
#X connect 43 0 17 0;
#X connect 43 0 6 0;
#X connect 45 0 46 0;
#X connect 45 0 41 0;
#X connect 46 0 36 0;
#X connect 47 0 27 0;
#X connect 47 1 44 0;
#X connect 48 0 74 0;
#X connect 50 0 39 0;
#X connect 51 0 39 0;
#X connect 52 0 53 0;
#X connect 53 0 49 0;
#X connect 54 0 77 0;
#X connect 55 0 194 0;
#X connect 58 0 64 0;
#X connect 58 0 78 0;
#X connect 59 0 61 0;
#X connect 59 0 69 0;
#X connect 60 0 81 0;
#X connect 61 0 58 1;
#X connect 62 0 68 0;
#X connect 63 0 65 3;
#X connect 65 0 62 0;
#X connect 66 0 67 0;
#X connect 67 0 64 0;
#X connect 68 0 226 0;
#X connect 69 0 58 2;
#X connect 70 0 71 0;
#X connect 70 0 73 0;
#X connect 71 0 40 0;
#X connect 72 0 32 0;
#X connect 73 0 63 0;
#X connect 74 0 75 0;
#X connect 76 0 227 0;
#X connect 77 0 50 0;
#X connect 78 0 79 0;
#X connect 79 0 80 0;
#X connect 81 0 62 0;
#X connect 82 0 102 0;
#X connect 82 0 145 0;
#X connect 83 0 85 0;
#X connect 84 0 83 0;
#X connect 84 0 127 0;
#X connect 86 0 93 0;
#X connect 87 0 92 0;
#X connect 88 0 86 0;
#X connect 89 0 85 1;
#X connect 89 0 129 0;
#X connect 90 0 91 0;
#X connect 91 0 88 0;
#X connect 91 0 96 0;
#X connect 91 0 105 0;
#X connect 92 0 89 0;
#X connect 93 0 87 0;
#X connect 94 0 101 0;
#X connect 95 0 98 0;
#X connect 96 0 94 0;
#X connect 97 0 85 2;
#X connect 98 0 97 0;
#X connect 99 0 88 0;
#X connect 100 0 96 0;
#X connect 101 0 95 0;
#X connect 102 0 130 0;
#X connect 103 0 108 0;
#X connect 104 0 107 0;
#X connect 105 0 103 0;
#X connect 106 0 85 3;
#X connect 106 0 128 0;
#X connect 107 0 106 0;
#X connect 108 0 104 0;
#X connect 109 0 105 0;
#X connect 110 0 85 0;
#X connect 111 0 99 0;
#X connect 111 0 100 0;
#X connect 111 0 109 0;
#X connect 112 0 82 0;
#X connect 113 0 114 0;
#X connect 114 0 36 0;
#X connect 114 1 36 0;
#X connect 115 0 116 0;
#X connect 117 0 118 0;
#X connect 119 0 120 0;
#X connect 120 0 112 0;
#X connect 120 1 112 0;
#X connect 121 0 122 0;
#X connect 123 0 124 0;
#X connect 125 0 126 0;
#X connect 126 0 112 0;
#X connect 126 0 90 0;
#X connect 127 0 85 0;
#X connect 128 0 130 3;
#X connect 129 0 130 1;
#X connect 130 0 110 0;
#X connect 131 0 136 0;
#X connect 132 0 144 0;
#X connect 132 0 140 0;
#X connect 133 0 147 0;
#X connect 134 0 146 0;
#X connect 135 0 137 3;
#X connect 137 0 134 0;
#X connect 138 0 139 0;
#X connect 139 0 136 0;
#X connect 140 0 131 2;
#X connect 141 0 135 0;
#X connect 142 0 143 0;
#X connect 143 0 131 0;
#X connect 144 0 131 1;
#X connect 145 0 137 0;
#X connect 146 0 142 0;
#X connect 147 0 134 0;
#X connect 152 0 167 0;
#X connect 152 0 204 0;
#X connect 154 0 153 0;
#X connect 155 0 154 0;
#X connect 155 0 165 0;
#X connect 156 0 152 0;
#X connect 156 1 197 0;
#X connect 156 1 152 0;
#X connect 157 0 197 0;
#X connect 157 0 156 0;
#X connect 157 0 200 0;
#X connect 157 0 205 0;
#X connect 157 0 202 0;
#X connect 157 0 201 0;
#X connect 159 0 164 0;
#X connect 160 0 159 0;
#X connect 161 0 155 0;
#X connect 162 0 163 0;
#X connect 163 0 152 0;
#X connect 164 0 166 0;
#X connect 165 0 153 0;
#X connect 166 0 161 0;
#X connect 167 0 198 0;
#X connect 169 0 180 0;
#X connect 170 0 190 0;
#X connect 171 0 176 0;
#X connect 171 0 177 0;
#X connect 172 0 191 0;
#X connect 173 0 224 0;
#X connect 174 0 170 0;
#X connect 174 0 186 0;
#X connect 175 0 183 0;
#X connect 176 0 169 1;
#X connect 177 0 169 2;
#X connect 178 0 185 0;
#X connect 179 0 192 0;
#X connect 180 0 175 0;
#X connect 181 0 182 0;
#X connect 182 0 180 2;
#X connect 184 0 180 2;
#X connect 185 0 179 0;
#X connect 186 0 181 0;
#X connect 186 0 184 0;
#X connect 187 0 188 0;
#X connect 188 0 174 0;
#X connect 189 0 183 0;
#X connect 190 0 178 0;
#X connect 191 0 178 0;
#X connect 192 0 169 0;
#X connect 194 0 65 0;
#X connect 196 0 0 1;
#X connect 197 0 153 0;
#X connect 198 0 160 0;
#X connect 199 0 153 0;
#X connect 200 0 153 0;
#X connect 201 0 153 0;
#X connect 202 0 153 0;
#X connect 203 0 153 0;
#X connect 204 0 203 0;
#X connect 205 0 153 0;
#X connect 206 0 207 0;
#X connect 207 0 210 0;
#X connect 209 0 210 2;
#X connect 209 0 210 1;
#X connect 210 0 208 0;
#X connect 211 0 208 1;
#X connect 212 0 214 0;
#X connect 213 0 209 0;
#X connect 214 0 215 0;
#X connect 215 0 216 0;
#X connect 215 0 217 0;
#X connect 216 0 218 0;
#X connect 217 0 213 0;
#X connect 218 0 215 1;
#X connect 219 0 225 0;
#X connect 220 0 206 0;
#X connect 220 0 223 0;
#X connect 221 0 222 0;
#X connect 222 0 220 0;
#X connect 222 0 206 0;
#X connect 222 0 212 0;
#X connect 222 0 209 0;
#X connect 222 0 213 0;
#X connect 224 0 174 0;
#X connect 224 1 174 0;
#X connect 225 0 220 0;
#X connect 225 1 220 0;
#X connect 226 0 228 0;
#X connect 227 0 72 0;
#X connect 228 0 58 0;
#X restore 514 50 pd parti;
#X obj 320 10 cnv 15 100 25 empty empty Buildings 20 12 0 14 -262130
-66577 0;
#X obj 514 8 cnv 15 100 25 empty empty Particles 20 12 0 14 -262130
-66577 0;
#X obj 31 8 cnv 15 100 25 empty empty GemWin 20 12 0 14 -262130 -66577
0;
#X obj 404 198 mult_floors;
#X obj 321 74 clone 20 mult_floors;
#X obj 321 197 building_eq;
#X obj 321 47 clone 12 building_eq;
#X obj 198 130 tgl 15 0 empty empty empty 17 7 0 10 -262144 -1 -1 0
1;
#X msg 198 150 lighting \$1;
#X obj 528 277 rectangle 10, f 21;
#X obj 528 230 rotateXYZ 0 0 -3;
#X obj 527 176 separator;
#X obj 691 185 separator;
#X obj 691 231 rotateXYZ 0 0 1.2;
#X obj 691 278 rectangle 10 0.5, f 21;
#X obj 527 135 gemhead 80;
#X obj 691 210 translateXYZ 0 -3.5 0.5;
#X obj 527 209 translateXYZ 0 -4 0;
#X obj 528 251 colorRGB 0.114 0.1 0.1 1;
#X obj 691 252 colorRGB 0.13 0.13 0.2 1;
#X obj 198 108 r l;
#X msg 76 214 color \$1 \$1 \$1;
#X obj 194 189 r arduinoNum;
#X obj 195 258 line 0 1;
#X floatatom 195 280 5 0 0 0 - - -, f 5;
#X msg 194 234 \$1 5000;
#X obj 22 471 loadbang;
#X msg 33 82 dimen 800 600 \, create \, 1;
#X msg 278 349 devices;
#X msg 58 301 open 3;
#X msg 119 303 close 3;
#X obj 58 328 comport 3 9600;
#X obj 194 211 * 0.03;
#X msg 22 491 0;
#X connect 1 0 5 0;
#X connect 4 0 3 0;
#X connect 5 0 2 0;
#X connect 6 0 9 0;
#X connect 6 0 19 0;
#X connect 6 0 40 0;
#X connect 6 0 39 0;
#X connect 6 0 38 0;
#X connect 6 0 31 0;
#X connect 6 0 28 0;
#X connect 6 0 27 0;
#X connect 6 0 26 0;
#X connect 6 0 41 0;
#X connect 6 0 42 0;
#X connect 6 0 43 0;
#X connect 6 0 75 0;
#X connect 6 0 75 1;
#X connect 7 0 8 0;
#X connect 8 0 113 0;
#X connect 9 0 7 0;
#X connect 11 0 12 0;
#X connect 12 0 104 0;
#X connect 13 0 14 0;
#X connect 14 0 109 0;
#X connect 15 0 16 0;
#X connect 16 0 107 0;
#X connect 17 0 18 0;
#X connect 18 0 111 0;
#X connect 19 0 17 0;
#X connect 20 0 21 0;
#X connect 21 0 115 0;
#X connect 22 0 23 0;
#X connect 23 0 117 0;
#X connect 24 0 25 0;
#X connect 25 0 119 0;
#X connect 26 0 20 0;
#X connect 27 0 22 0;
#X connect 28 0 24 0;
#X connect 29 0 30 0;
#X connect 30 0 121 0;
#X connect 31 0 29 0;
#X connect 32 0 33 0;
#X connect 33 0 123 0;
#X connect 34 0 35 0;
#X connect 35 0 125 0;
#X connect 36 0 37 0;
#X connect 37 0 127 0;
#X connect 38 0 32 0;
#X connect 39 0 34 0;
#X connect 40 0 36 0;
#X connect 41 0 15 0;
#X connect 42 0 13 0;
#X connect 43 0 11 0;
#X connect 45 0 48 1;
#X connect 46 0 49 1;
#X connect 47 0 45 0;
#X connect 47 0 68 0;
#X connect 47 0 67 0;
#X connect 47 0 66 0;
#X connect 47 0 65 0;
#X connect 47 0 64 0;
#X connect 47 0 63 0;
#X connect 47 0 62 0;
#X connect 47 0 61 0;
#X connect 47 0 60 0;
#X connect 47 0 46 0;
#X connect 60 0 51 1;
#X connect 61 0 52 1;
#X connect 62 0 53 1;
#X connect 63 0 54 1;
#X connect 64 0 55 1;
#X connect 65 0 56 1;
#X connect 66 0 57 1;
#X connect 67 0 58 1;
#X connect 68 0 59 1;
#X connect 70 0 6 0;
#X connect 71 0 6 0;
#X connect 73 0 10 0;
#X connect 74 0 177 0;
#X connect 77 0 76 0;
#X connect 78 0 77 0;
#X connect 79 0 76 1;
#X connect 79 0 80 0;
#X connect 81 0 6 0;
#X connect 82 0 100 0;
#X connect 82 0 147 0;
#X connect 84 0 83 0;
#X connect 84 0 83 1;
#X connect 84 1 106 0;
#X connect 85 0 95 0;
#X connect 85 1 86 0;
#X connect 87 0 86 0;
#X connect 88 0 91 0;
#X connect 89 0 179 0;
#X connect 90 0 82 0;
#X connect 91 0 92 0;
#X connect 91 0 93 0;
#X connect 91 0 129 0;
#X connect 93 0 90 0;
#X connect 93 0 94 0;
#X connect 95 0 84 0;
#X connect 96 0 98 0;
#X connect 96 0 102 0;
#X connect 96 1 99 0;
#X connect 96 2 88 0;
#X connect 98 0 82 0;
#X connect 99 0 82 0;
#X connect 100 1 130 0;
#X connect 100 2 133 0;
#X connect 100 3 134 0;
#X connect 100 4 136 0;
#X connect 100 5 139 0;
#X connect 100 6 142 0;
#X connect 100 7 87 0;
#X connect 100 8 85 0;
#X connect 100 9 101 0;
#X connect 100 9 144 0;
#X connect 102 0 103 0;
#X connect 103 0 82 0;
#X connect 104 0 105 0;
#X connect 105 0 48 0;
#X connect 106 0 82 0;
#X connect 107 0 108 0;
#X connect 108 0 50 0;
#X connect 109 0 110 0;
#X connect 110 0 49 0;
#X connect 111 0 112 0;
#X connect 112 0 51 0;
#X connect 113 0 114 0;
#X connect 114 0 52 0;
#X connect 115 0 116 0;
#X connect 116 0 53 0;
#X connect 117 0 118 0;
#X connect 118 0 54 0;
#X connect 119 0 120 0;
#X connect 120 0 55 0;
#X connect 121 0 122 0;
#X connect 122 0 56 0;
#X connect 123 0 124 0;
#X connect 124 0 57 0;
#X connect 125 0 126 0;
#X connect 126 0 58 0;
#X connect 127 0 128 0;
#X connect 128 0 59 0;
#X connect 130 0 81 0;
#X connect 130 1 71 0;
#X connect 131 0 132 0;
#X connect 132 0 84 0;
#X connect 133 0 81 0;
#X connect 133 1 70 0;
#X connect 134 0 81 0;
#X connect 134 1 135 0;
#X connect 135 0 6 0;
#X connect 136 0 81 0;
#X connect 136 1 140 0;
#X connect 137 0 138 0;
#X connect 138 0 6 0;
#X connect 139 0 81 0;
#X connect 139 1 141 0;
#X connect 140 0 6 0;
#X connect 141 0 6 0;
#X connect 142 0 81 0;
#X connect 142 1 143 0;
#X connect 143 0 6 0;
#X connect 157 0 158 0;
#X connect 158 0 3 0;
#X connect 160 0 168 0;
#X connect 161 0 167 0;
#X connect 162 0 166 0;
#X connect 163 0 169 0;
#X connect 165 0 162 0;
#X connect 165 0 161 0;
#X connect 166 0 163 0;
#X connect 167 0 160 0;
#X connect 168 0 159 0;
#X connect 169 0 164 0;
#X connect 170 0 157 0;
#X connect 171 0 3 0;
#X connect 172 0 182 0;
#X connect 173 0 171 0;
#X connect 173 0 174 0;
#X connect 175 0 173 0;
#X connect 176 0 183 0;
#X connect 177 0 3 0;
#X connect 178 0 181 0;
#X connect 179 0 181 0;
#X connect 180 0 181 0;
#X connect 181 0 97 0;
#X connect 181 0 96 0;
#X connect 182 0 175 0;
#X connect 183 0 82 0;
